<?xml version="1.0" encoding="utf-8"?>
<!-- Generator: Adobe Illustrator 24.1.1, SVG Export Plug-In . SVG Version: 6.00 Build 0)  -->
<svg version="1.1" id="Layer_1" xmlns="http://www.w3.org/2000/svg" xmlns:xlink="http://www.w3.org/1999/xlink" x="0px" y="0px"
	 viewBox="0 0 700 700" style="enable-background:new 0 0 700 700;" xml:space="preserve">
<style type="text/css">
	.st0{fill:#1F4297;}
</style>
<g>
	<path class="st0" d="M686,425.4c0,23.1-9.5,45.4-25.8,61.9L487.6,660c-34.3,34.3-90.1,34.3-124.6,0L42,338.6
		C23,319.7,14.5,294,16.2,268.2l15.5-158.1c4.4-42,36.9-74.8,79-79l157.2-15.5c25.8-2.7,52.5,6.8,70.4,25.8l322.1,321.2
		C676.7,379,686,402.1,686,425.4z M35.9,276c0,18,6.8,35.2,19.7,48.1L377,646c26.7,26.7,70.4,26.7,97.1,0l172.7-172.7
		c26.7-26.7,26.7-70.4,0-97.1l-321.4-321c-14.6-14.6-34.3-21.4-54.9-19.7L113.4,51C80.8,54.4,55,80.2,51.4,112.9L35.9,270.1V276
		L35.9,276z"/>
	<path class="st0" d="M303.9,230.3c0,40.3-32.6,72.1-73.1,72.1c-40.3,0-72.1-32.6-72.1-73.1c0-40.3,32.6-72.1,73.1-72.1
		c18.9,0,37.9,7.8,50.8,21.4C296.1,192.6,303.9,211.4,303.9,230.3z M178.5,230.3c0,29.2,24,53.2,53.2,53.2s53.2-24,53.2-53.2
		c0-13.8-5.1-27.5-15.5-37.9c-20.6-20.6-54.2-20.6-74.8,0C183.6,202.9,178.5,216.7,178.5,230.3L178.5,230.3z"/>
</g>
</svg>
