<?xml version="1.0" encoding="utf-8"?>
<!-- Generator: Adobe Illustrator 24.1.1, SVG Export Plug-In . SVG Version: 6.00 Build 0)  -->
<svg version="1.1" id="Layer_1" xmlns="http://www.w3.org/2000/svg" xmlns:xlink="http://www.w3.org/1999/xlink" x="0px" y="0px"
	 viewBox="0 0 794 663" style="enable-background:new 0 0 794 663;" xml:space="preserve">
<style type="text/css">
	.st0{fill:#3F3D56;}
	.st1{fill:url(#SVGID_1_);}
	.st2{fill:#E6E6E6;}
	.st3{fill:url(#SVGID_2_);}
	.st4{fill:url(#SVGID_3_);}
	.st5{fill:url(#SVGID_4_);}
	.st6{fill:#FF6584;}
	.st7{fill:#A0616A;}
	.st8{fill:#2F2E41;}
	.st9{fill:#CCCCCC;}
	.st10{fill:url(#SVGID_5_);}
</style>
<path class="st0" d="M782.3,415.6H478.9c-3.3,0-5.9-2.7-5.9-5.9V95.4c0-3.3,2.7-5.9,5.9-5.9h303.4c3.3,0,5.9,2.7,5.9,5.9v314.2
	C788.2,412.9,785.5,415.6,782.3,415.6z M478.9,91.6c-2.2,0-3.8,1.7-3.8,3.8v314.2c0,2.2,1.7,3.8,3.8,3.8h303.4
	c2.2,0,3.8-1.7,3.8-3.8V95.4c0-2.2-1.7-3.8-3.8-3.8C782.3,91.6,478.9,91.6,478.9,91.6z"/>
<linearGradient id="SVGID_1_" gradientUnits="userSpaceOnUse" x1="537.8481" y1="412.4696" x2="723.4045" y2="412.4696" gradientTransform="matrix(1 0 0 -1 0 665)">
	<stop  offset="0" style="stop-color:#FAED7C"/>
	<stop  offset="1" style="stop-color:#F1B31D"/>
</linearGradient>
<path class="st1" d="M687.8,221.6c17.1,31.6,5.3,71.1-26.2,88.1s-71.1,5.3-88.1-26.2c-17.1-31.6-5.3-71.1,26.2-88.1
	c9.5-5.1,20.2-7.8,31-7.8c0.5,0,1,0,1.5,0l-0.7-27.8c-0.3,0-0.6,0-0.8,0c-51.2,0-92.8,41.6-92.8,92.8s41.6,92.8,92.8,92.8
	c51.2,0,92.8-41.6,92.8-92.8c0-16.8-4.5-33.3-13.3-47.7L687.8,221.6z"/>
<path class="st2" d="M687.8,221.6l22.3-16.8c-16.7-27.7-46.4-44.7-78.7-45.1l0.7,27.8C655.4,188,676.7,201.1,687.8,221.6z"/>
<rect x="692.8" y="326" transform="matrix(0.7104 -0.7038 0.7038 0.7104 -44.89 589.2645)" class="st0" width="1.6" height="46.3"/>
<rect x="665" y="150.6" transform="matrix(0.4892 -0.8722 0.8722 0.4892 219.4422 677.5317)" class="st0" width="46.3" height="1.6"/>
<linearGradient id="SVGID_2_" gradientUnits="userSpaceOnUse" x1="682.8784" y1="293.2568" x2="737.3984" y2="293.2568" gradientTransform="matrix(1 0 0 -1 0 665)">
	<stop  offset="0" style="stop-color:#FAED7C"/>
	<stop  offset="1" style="stop-color:#F1B31D"/>
</linearGradient>
<path class="st3" d="M734.2,378.3h-48.1c-1.7,0-3.2-1.4-3.2-3.2v-6.8c0-1.7,1.4-3.2,3.2-3.2h48.1c1.7,0,3.2,1.4,3.2,3.2v6.8
	C737.5,376.9,736.1,378.3,734.2,378.3z"/>
<path class="st2" d="M722.1,131.8h-48.1c-1.7,0-3.2-1.4-3.2-3.2v-6.8c0-1.7,1.4-3.2,3.2-3.2h48.1c1.7,0,3.2,1.4,3.2,3.2v6.8
	C725.3,130.3,723.8,131.8,722.1,131.8z"/>
<path class="st0" d="M424.5,239.6H81.6c-3.1,0-5.7-2.5-5.7-5.7V96.2c0-3.1,2.5-5.7,5.7-5.7h342.9c3.1,0,5.7,2.5,5.7,5.7v137.7
	C430.2,237,427.6,239.6,424.5,239.6z M81.6,92.6c-2,0-3.6,1.6-3.6,3.6v137.7c0,2,1.6,3.6,3.6,3.6h342.9c2,0,3.6-1.6,3.6-3.6V96.2
	c0-2-1.6-3.6-3.6-3.6H81.6z"/>
<path class="st2" d="M215.3,205.3h-33.2c-1.7,0-3.3-1.2-3.5-3c-2.2-14.1-2.2-28.4,0-42.5c0.3-1.7,1.7-3,3.5-3h33.2
	c1.1,0,2.2,0.5,2.8,1.3c0.7,0.8,0.9,2.1,0.7,3.1c-3.1,13.1-3.1,26.5,0,39.6c0.3,1,0,2.3-0.7,3.1
	C217.3,204.8,216.3,205.3,215.3,205.3z"/>
<path class="st2" d="M326.5,205.3h-33.2c-1.7,0-3.3-1.2-3.5-3c-2.2-14.1-2.2-28.4,0-42.5c0.3-1.7,1.7-3,3.5-3h33.2
	c1.1,0,2.2,0.5,2.8,1.3c0.7,0.8,0.9,2.1,0.7,3.1c-3.1,13.1-3.1,26.5,0,39.6c0.3,1,0,2.3-0.7,3.1
	C328.6,204.8,327.6,205.3,326.5,205.3z"/>
<linearGradient id="SVGID_3_" gradientUnits="userSpaceOnUse" x1="120.372" y1="515.9965" x2="162.3288" y2="515.9965" gradientTransform="matrix(1 0 0 -1 0 665)">
	<stop  offset="0" style="stop-color:#FAED7C"/>
	<stop  offset="1" style="stop-color:#F1B31D"/>
</linearGradient>
<path class="st4" d="M158.7,173.2h-33.2c-1.7,0-3.3-1.2-3.5-3c-2.2-14.1-2.2-28.4,0-42.5c0.3-1.7,1.7-3,3.5-3h33.2
	c1.1,0,2.2,0.5,2.8,1.3c0.7,0.8,0.9,2.1,0.7,3.1c-3.1,13.1-3.1,26.5,0,39.6c0.3,1,0,2.3-0.7,3.1
	C160.9,172.7,159.8,173.2,158.7,173.2z"/>
<linearGradient id="SVGID_4_" gradientUnits="userSpaceOnUse" x1="234.297" y1="515.9965" x2="276.2538" y2="515.9965" gradientTransform="matrix(1 0 0 -1 0 665)">
	<stop  offset="0" style="stop-color:#FAED7C"/>
	<stop  offset="1" style="stop-color:#F1B31D"/>
</linearGradient>
<path class="st5" d="M271.1,173.2h-33.2c-1.1,0-2.2-0.5-2.8-1.3c-0.7-0.8-0.9-2.1-0.7-3.1c3.1-13.1,3.1-26.5,0-39.6
	c-0.3-1,0-2.3,0.7-3.1c0.7-0.8,1.7-1.3,2.8-1.3h33.2c1.7,0,3.3,1.2,3.5,3c2.2,14.1,2.2,28.4,0,42.5
	C274.3,171.9,272.9,173.2,271.1,173.2z"/>
<path class="st6" d="M380.6,173.2h-33.2c-1.1,0-2.2-0.5-2.8-1.3c-0.7-0.8-0.9-2.1-0.7-3.1c3.1-13.1,3.1-26.5,0-39.6
	c-0.3-1,0-2.3,0.7-3.1c0.7-0.8,1.7-1.3,2.8-1.3h33.2c1.7,0,3.3,1.2,3.5,3c2.2,14.1,2.2,28.4,0,42.5
	C383.8,171.9,382.3,173.2,380.6,173.2z"/>
<path class="st7" d="M195.5,418.1c-6-1.2-9.9-7.1-8.6-13.1c0.1-0.6,0.3-1.2,0.5-1.9l-45.6-97.9l23.1-6.5l37.5,98.4
	c5.6,2.7,7.9,9.3,5.2,14.8C205.7,416.6,200.6,419.2,195.5,418.1L195.5,418.1z"/>
<polygon class="st7" points="107.3,574.4 119.8,574.4 125.9,525.7 107.3,525.7 "/>
<path class="st8" d="M144.2,586h-39.6l0,0v-15.3l0,0h24.3C137.3,570.8,144.2,577.6,144.2,586L144.2,586L144.2,586z"/>
<polygon class="st7" points="41.8,560.7 53.3,565.7 78,523.4 60.9,516.1 "/>
<path class="st8" d="M71.1,586l-36.4-15.6l0,0l6.1-14.1l0,0l22.3,9.6C70.8,569.2,74.4,578.3,71.1,586L71.1,586L71.1,586z"/>
<circle class="st7" cx="138.4" cy="234.1" r="25.3"/>
<path class="st8" d="M120.1,562.4l-13.9-2.7c-2.4-0.4-4-2.7-3.7-5l9.2-89.8c0.2-2-1.2-3.7-3.2-3.9c-1.5-0.2-3.1,0.7-3.7,2.2
	L64.6,557c-1,2.4-3.7,3.4-6.1,2.5c0,0,0,0-0.1,0l-11.3-5c-2.2-0.9-3.3-3.4-2.5-5.7l27.6-82.5c0.1-0.2,0.1-0.5,0.2-0.7l8.9-75.3
	c0.2-1.6,1.3-3.1,2.9-3.7l28.2-11.4c1.7-0.7,3.7-0.3,4.9,0.9l35.6,34.7c1.1,1.1,1.6,2.7,1.3,4.2l-28.6,144c-0.4,2.2-2.4,3.7-4.5,3.7
	C120.8,562.5,120.4,562.5,120.1,562.4z"/>
<path class="st9" d="M104.4,394.4c-4.9-5.7-8.5-8.3-11-7.9c-2.5,0.4-3.8,3.8-5.3,7.4c-2.1,4.9-4.3,10.5-10,10.9
	c-1.9,0.3-3.6-0.4-4.7-2c-4.4-6.7,6.3-28.6,7.2-30.5l-0.5-104c0-1.7,0.9-3.3,2.5-4.1c29.4-15.8,69.2,11.7,76.8,17.4l0,0
	c1.2,0.9,2,2.4,1.9,3.9c-0.9,17.4-5.6,105.2-5.6,124.9c0,5.5-1.9,8.8-5.6,10.3c-1.2,0.4-2.6,0.6-3.9,0.6
	C135,421.3,116.5,408.5,104.4,394.4z"/>
<path class="st9" d="M145.4,343.9c-1.2-0.8-2.1-2.2-2.1-3.7l-2-46.6c-0.3-6.7,4.9-12.3,11.5-12.5c5.2-0.2,10,2.9,11.8,7.7l14.9,39.1
	c0.9,2.4-0.3,5-2.7,6l-27.4,10.4C148.2,344.9,146.7,344.7,145.4,343.9L145.4,343.9z"/>
<path class="st7" d="M75.9,416.6c-5-3.4-6.4-10.3-3-15.3c0.4-0.5,0.8-1,1.2-1.5l-4.8-107.9l23.9,2.8l-2.8,105.3
	c4.1,4.5,3.8,11.6-0.8,15.7C85.9,419.2,80.2,419.5,75.9,416.6L75.9,416.6z"/>
<path class="st9" d="M59.4,320.6c-0.9-1.2-1.1-2.8-0.6-4.2l14.7-44.2c2.2-6.4,8.9-9.8,15.3-7.6c4.9,1.6,8.2,6.3,8.2,11.4v41.9
	c0,2.6-2.1,4.6-4.6,4.6H63.2C61.6,322.6,60.3,321.9,59.4,320.6z"/>
<path class="st8" d="M122.1,251.1c-2,1.5-4.7,1.4-6.6-0.3c-5.5-5-10-11.1-12.3-18.1c-2.7-8-2-17.5,3.1-24.2
	c4.3-5.8,11.1-8.9,17.8-11.5c2.6-1.1,5.3-1.9,8.2-2.2s5.7,0.5,8,2.3c2.3,1.9,3.2,4.8,2.4,7.6c3.4-3.1,7.6-5.2,12.1-6.3
	c2.9-0.7,5.9-0.6,8.6,0.3c3.9,1.6,6.4,5.5,7.5,9.6c0.9,3.1,1,6.4,0.2,9.5c-0.8,3.1-3,5.8-5.9,7.2c-3.6,1.6-7.7,1-11.5-0.2
	c-3.8-1.2-7.2-3.2-11.1-4c-3.9-0.8-8.2-0.3-11,2.5c-2,2-2.7,4.8-3.4,7.5l-3.6,13.9c-0.4,2.1-1.1,4-2.3,5.8
	C122.6,250.7,122.4,250.9,122.1,251.1z"/>
<linearGradient id="SVGID_5_" gradientUnits="userSpaceOnUse" x1="186.2013" y1="237.2504" x2="228.1581" y2="237.2504" gradientTransform="matrix(1 0 0 -1 0 665)">
	<stop  offset="0" style="stop-color:#FAED7C"/>
	<stop  offset="1" style="stop-color:#F1B31D"/>
</linearGradient>
<path class="st10" d="M224.5,452h-33.2c-1.7,0-3.3-1.2-3.5-3c-2.2-14.1-2.2-28.4,0-42.5c0.3-1.7,1.7-3,3.5-3h33.2
	c1.1,0,2.2,0.5,2.8,1.3c0.7,0.8,0.9,2.1,0.7,3.1c-3.1,13.1-3.1,26.5,0,39.6c0.3,1,0,2.3-0.7,3.1C226.7,451.5,225.7,452,224.5,452z"
	/>
<path class="st0" d="M168.9,587.3H3.3c-0.6,0-1-0.4-1-1c0-0.6,0.4-1,1-1h165.6c0.6,0,1,0.4,1,1C169.9,586.9,169.5,587.3,168.9,587.3
	z"/>
</svg>
