<?xml version="1.0" encoding="utf-8"?>
<!-- Generator: Adobe Illustrator 24.1.1, SVG Export Plug-In . SVG Version: 6.00 Build 0)  -->
<svg version="1.1" id="Layer_1" xmlns="http://www.w3.org/2000/svg" xmlns:xlink="http://www.w3.org/1999/xlink" x="0px" y="0px"
	 viewBox="0 0 700 700" style="enable-background:new 0 0 700 700;" xml:space="preserve">
<style type="text/css">
	.st0{fill:#1F4297;}
</style>
<g>
	<path class="st0" d="M307.7,220c0,2.4,0,4.7-0.2,7.1c0,1.2-0.2,2.4-0.4,3.8c0,0.6-0.2,1.2-0.2,1.8c0,0.4-0.4,3-0.2,1.2
		c0.2-1.4-0.4,2.2-0.4,2.8c-0.2,1.2-0.4,2.6-0.6,3.8c-0.6,2.8-1.2,5.3-1.8,8.1c-1.2,5.1-2.8,10.3-4.5,15.2c-1,2.6-1.8,4.9-3,7.5
		c-0.8,2-0.2,0.6,0,0.2c-0.4,0.6-0.6,1.2-0.8,1.8c-0.6,1.6-1.4,3.2-2.2,4.5c-4.7,9.9-10.5,19.2-17,28.1c-1,1.4,1-1.2,0,0
		c-0.4,0.6-0.8,1-1.2,1.6c-0.8,1-1.6,2-2.6,3c-1.8,2.2-3.8,4.1-5.5,6.1c-3.6,3.6-7.3,7.1-11.3,10.3c1.8-1.6-1,0.6-1.4,1
		c-1,0.6-2,1.4-3,2.2c-2.2,1.4-4.3,2.8-6.5,4c-1,0.6-2.2,1.2-3.2,1.6c-0.4,0.2-3.6,1.6-2.4,1c1.2-0.6-2,0.8-2.4,1
		c-1.2,0.4-2.6,0.8-3.8,1.2c-2.2,0.6-4.5,1.2-6.7,1.6c-0.8,0.2-4.1,0.4-1.2,0.2c-1.2,0-2.6,0.2-4,0.4c-2.2,0-4.3,0-6.5,0
		c-1.2,0-2.4-0.2-3.4-0.4c3,0.2-1.2-0.2-2.2-0.4c-2.2-0.4-4.5-1-6.7-1.8c-1-0.4-2-0.6-3-1c-0.6-0.2-4.1-1.8-1.8-0.6
		c-4.5-2-8.9-4.3-13-7.1c-1-0.6-2-1.4-3-2.2c-0.6-0.4-1-0.8-1.6-1.2c-1.4-1,1.4,1.2,0,0c-2.2-1.6-4.1-3.4-6.1-5.3
		c-4-3.6-7.5-7.5-11.1-11.5c-0.8-1-1.6-2-2.6-3.2c-0.4-0.4-0.6-0.8-1-1.2c1.2,1.6,0.2,0.2,0,0c-1.8-2.4-3.6-4.9-5.3-7.3
		c-3-4.5-5.7-9.1-8.3-13.8c-1.2-2.4-2.6-4.7-3.8-7.3c-0.6-1.2-1.2-2.6-1.8-3.8c-0.4-0.6-0.6-1.2-0.8-1.8c0.6,1.6,0,0.2-0.2-0.6
		c-2.2-5.1-4-10.3-5.5-15.6c-1.6-5.1-2.8-10.3-3.8-15.6c-0.2-1.2-0.4-2.2-0.6-3.4c-0.2-0.8-0.6-4.1-0.4-1.6
		c-0.4-2.8-0.6-5.5-0.8-8.3c-0.6-12.1,0-19.4,3.2-30.2c0.8-2.6,1.6-5.1,2.6-7.7c0.4-1.2,0.8-2.2,1.2-3.4c-0.8,2-0.2,0.4,0,0
		c0.4-1,0.8-1.8,1.2-2.8c2.2-4.7,4.9-9.3,7.9-13.6c0.8-1,1.6-2.2,2.4-3.2c1.2-1.8,0.4-0.4,0,0c0.4-0.6,0.8-1,1.2-1.6
		c1.8-2.2,3.8-4.5,5.9-6.5c1.8-1.8,3.6-3.4,5.3-5.1c1-1,2-1.8,3-2.6c0.2-0.2,1.8-1.6,0.8-0.6c-1.2,1,1-0.8,1.2-1
		c4.3-3.2,8.9-6.1,13.8-8.5c1.2-0.6,2.4-1.2,3.6-1.8c0.6-0.4,1.2-0.6,1.8-0.8c1.6-0.6-1.6,0.6,0,0c2.6-1,5.3-2,8.1-2.8
		c2.6-0.8,5.1-1.6,7.7-2c1.2-0.2,2.4-0.4,3.6-0.6c0.6,0,4.9-0.8,2.6-0.4c5.7-0.6,11.5-1,17.2-0.6c1.4,0,2.8,0.2,4.1,0.4
		c0.6,0,1.4,0.2,2.2,0.2c0.4,0,2.6,0.4,1,0.2c-1.6-0.2,0.8,0.2,1,0.2c0.6,0,1.4,0.2,2,0.4l4.5,1c2.6,0.6,5.3,1.2,7.7,2.2
		c1.2,0.4,2.6,0.8,3.8,1.2c0.6,0.2,1.2,0.4,1.8,0.6c0.2,0,2.8,1.2,1.4,0.6c-1.2-0.6,0.6,0.4,1,0.4c0.6,0.4,1.2,0.6,1.8,0.8
		c1,0.6,2.2,1,3.2,1.6c2.6,1.4,5.3,2.8,7.7,4.3c2.2,1.4,4.3,3,6.5,4.3c0.2,0,1.4,1,0.4,0.4c-1-0.8,0.6,0.4,0.8,0.6
		c1.2,1,2.2,1.8,3.4,2.8c4,3.6,7.7,7.5,11.1,11.7c0.2,0.2,1.6,1.8,0.6,0.8c-0.8-1,0.4,0.6,0.6,0.8c0.8,1,1.6,2.2,2.2,3.2
		c1.6,2.4,3.2,4.7,4.3,7.1s2.6,4.5,3.6,7.1c0.4,0.6,1.6,4,0.8,1.8c0.6,1.4,1.2,2.8,1.6,4.1c1.8,5.3,3.4,10.7,4.3,16
		c0.2,0.6,0.6,4.3,0.4,2.2c0.2,1.2,0.4,2.4,0.4,3.6C307.5,214.1,307.7,217,307.7,220c0,5.9,5.1,11.5,11.3,11.3
		c6.1-0.4,11.3-4.9,11.3-11.3c-0.2-25.9-9.1-50.6-25.3-70.7c-15.2-19-37.3-32.8-61-38.3c-25.3-5.9-52-2.6-75.3,8.7
		c-21.5,10.5-39.9,28.8-50.4,50.4c-11.3,23.1-13.8,48.2-9.5,73.3c4,23.5,13.8,46.6,27.1,66.6c13,19.2,30,36.9,51.6,46.2
		c22.1,9.5,45.6,8.5,67-2.2c21.1-10.7,37.9-29.6,50.4-49.6c12.6-20.5,21.3-43.7,24.5-67.6c0.8-5.5,1.2-11.3,1.2-16.8
		c0-5.9-5.1-11.5-11.3-11.3C312.8,209.1,307.7,213.7,307.7,220L307.7,220z"/>
	<path class="st0" d="M408.8,489.9v83.8v11.7c3.8-3.8,7.5-7.5,11.3-11.3H380h-96.4h-117H65.9c-16.2,0-32.8-0.8-49,0h-0.6
		c3.8,3.8,7.5,7.5,11.3,11.3v-86.1c0-3.8,0-7.5,0-11.5c0-3.2,0.4-6.3,0.6-9.3c0.2-2.2,0-0.6,0,0c0.2-1,0.4-2,0.4-3.2
		c0.4-1.6,0.6-3.4,1-4.9c0.6-3,1.4-5.9,2.4-8.7c0.6-1.6,1-3.2,1.6-4.7c0.2-0.6,0.4-1.2,0.8-1.8c0.6-1.2,0.6-1.2,0,0
		c0.2-0.4,0.4-1,0.6-1.4c2.8-5.9,5.7-11.5,9.5-16.8c0.4-0.6,0.8-1,1.2-1.6c0,0,1.8-2.6,1-1.2c-1,1.2,1-1.2,1-1.2
		c0.4-0.6,0.8-1,1.2-1.6c2.2-2.6,4.3-4.9,6.7-7.1c2.2-2.2,4.5-4.3,6.9-6.1c0.6-0.6,1.2-1,2-1.6c-0.4,0.4-1.6,1.2,0,0
		c1.6-1,3-2.2,4.3-3.2c2.6-1.8,5.3-3.4,8.1-4.7c1.4-0.6,2.6-1.4,4-2c0.8-0.4,1.6-0.6,2.2-1c0.4-0.2,3.2-1.2,1-0.4
		c6.7-2.8,13.6-4.7,20.7-5.9c0.8-0.2,1.8-0.4,2.6-0.4c2.6-0.4-1.6,0.2,1.2-0.2c1.8-0.2,3.4-0.4,5.1-0.4c2.4-0.2,4.5-0.2,7.1-0.2
		h23.5c-2.6-1.2-5.3-2.2-7.9-3.4c21.7,25.9,43.7,51.6,65.4,77.4c3.2,3.8,6.1,7.3,9.3,10.9c3.8,4.3,12.2,4.3,15.8,0
		c21.5-25.7,43.3-51.6,64.8-77.2c3.2-3.8,6.1-7.3,9.3-11.1c-2.6,1.2-5.3,2.2-7.9,3.4h21.9c4.5,0,9.1,0.2,13.6,0.6
		c3.4,0.4-1.4-0.2,0.6,0c0.8,0.2,1.8,0.2,2.6,0.4c1.6,0.4,3.4,0.6,4.9,1c3.4,0.8,6.5,1.6,9.7,2.8c1.6,0.6,3.2,1,4.7,1.6
		c0.6,0.2,1.2,0.6,1.8,0.8c-2.4-1,0.8,0.4,1,0.4c3,1.4,5.9,2.8,8.9,4.5c2.8,1.6,5.3,3.2,7.9,4.9c0.6,0.4,4,2.8,2.2,1.4
		c1.6,1.2,3.2,2.6,4.5,3.8c4.9,4.3,9.5,9.1,13.4,14.2c-1.2-1.6-0.2-0.2,0,0c0.6,0.8,1.2,1.6,1.8,2.4c0.8,1.2,1.6,2.6,2.6,3.8
		c1.8,3,3.6,5.9,5.1,9.1c0.8,1.6,1.6,3.4,2.4,4.9c0.8,1.8-1-2.6,0.2,0.6c0.4,1,0.8,1.8,1,2.8c1.2,3.4,2.4,7.1,3.2,10.7
		c0.4,2,1,4,1.2,5.9c0.2,0.6,0.2,1.4,0.4,2c0,0.6,0.4,3.2,0.2,1.2C408.6,481.6,408.8,485.7,408.8,489.9c0,5.9,5.1,11.5,11.3,11.3
		c6.1-0.4,11.3-4.9,11.3-11.3c-0.2-31.4-13.2-62.4-36.3-83.8c-21.9-20.3-50.4-30.8-80-30.8h-14.4c-5.3,0-11.9-1-16,3.4
		c-2.6,2.6-4.7,5.5-7.1,8.3c-12.6,15-25.3,30-37.9,45c-9.7,11.7-19.4,23.1-29,34.8h15.8c-14-16.6-28.1-33.2-42.1-49.8
		c-8.5-10.1-17-20.2-25.7-30.2c-2.2-2.6-4.1-5.1-6.3-7.5c-4.1-4.3-9.5-4-14.8-4c-17,0-33.8-0.2-50.2,4.5
		c-20.9,6.1-40.5,18.6-54.7,35.6c-15,17.8-24.1,38.9-26.9,62c-1.2,9.7-0.8,19.4-0.8,29v77.2v1.8c0,6.1,5.1,11.3,11.3,11.3h40.1h96.4
		h117h100.8c16.4,0,32.8,0.4,49,0h0.6c6.1,0,11.3-5.1,11.3-11.3v-83.8v-11.7c0-5.9-5.1-11.5-11.3-11.3
		C413.9,478.8,408.8,483.5,408.8,489.9L408.8,489.9z"/>
	<path class="st0" d="M628.7,272.4c-35,7.5-69.7,14.8-104.7,22.1c-28.2,5.9-56.5,12.1-84.7,18c-17.6,3.8-35.2,7.5-52.7,11.1
		c4.1,1.8,8.5,3.4,12.6,5.1c-7.5-12.8-14.8-25.7-22.3-38.7c-0.6,4.5-1.2,9.1-1.8,13.6c18.6-20.7,37.3-41.5,55.9-62.2
		c29.6-33,59.5-66.2,89.1-99.2c6.7-7.5,13.6-15.2,20.3-22.7c-5.9-0.8-11.7-1.6-17.6-2.2c11.1,19.4,22.3,38.7,33.6,58.1
		c17.8,30.8,35.6,61.4,53.3,92.3c4.1,7.1,8.1,14.2,12.2,21.3c3,5.3,10.3,7.1,15.4,4c5.3-3.2,7.1-10.1,4-15.4
		c-11.1-19.4-22.3-38.7-33.6-58.1c-17.8-30.8-35.6-61.4-53.3-92.3c-4.1-7.1-8.1-14.2-12.2-21.3c-3.4-5.9-12.8-7.7-17.6-2.2
		c-18.6,20.7-37.3,41.5-55.9,62.2c-29.6,33-59.5,66.2-89.1,99.2c-6.7,7.5-13.6,15.2-20.3,22.7c-3.4,3.8-4.3,9.1-1.8,13.6
		c7.5,12.8,14.8,25.7,22.3,38.7c2.6,4.5,7.7,6.1,12.6,5.1c32-6.7,64-13.6,96-20.3c31.4-6.7,63-13.2,94.4-20
		c17.4-3.8,34.6-7.3,51.8-11.1c5.9-1.2,9.3-8.3,7.9-13.8C640.7,274.1,634.6,271.2,628.7,272.4L628.7,272.4z"/>
	<path class="st0" d="M406.8,342.1c-11.1-19-21.9-38.1-33-57.1c-1.6-2.8-3.2-5.3-4.7-8.1c-3-5.3-10.3-7.1-15.4-4
		c-5.3,3.2-7.1,10.1-4,15.4c11.1,19,21.9,38.1,33,57.1c1.6,2.8,3.2,5.3,4.7,8.1c3,5.3,10.3,7.1,15.4,4
		C408,354.3,410,347.2,406.8,342.1L406.8,342.1z"/>
	<path class="st0" d="M515.3,104l38.5,67c20.5,35.6,41.1,71.1,61.6,106.7c4.7,8.1,9.5,16.4,14.2,24.5c3,5.3,10.3,7.1,15.4,4
		c5.3-3.2,7.1-10.1,4-15.4c-12.8-22.3-25.7-44.6-38.5-67c-20.5-35.6-41.1-71.1-61.6-106.7c-4.7-8.1-9.5-16.4-14.2-24.5
		c-3-5.3-10.3-7.1-15.4-4C514.1,91.8,512.3,98.7,515.3,104L515.3,104z"/>
	<path class="st0" d="M628.9,183.3c13-7.5,25.9-15,38.9-22.5c5.3-3,7.1-10.3,4-15.4c-3.2-5.3-10.1-7.1-15.4-4
		c-13,7.5-25.9,15-38.9,22.5c-5.3,3-7.1,10.3-4,15.4C616.6,184.7,623.7,186.4,628.9,183.3z"/>
	<path class="st0" d="M603,138.2c8.3-12.4,16.8-24.9,25.3-37.3c3.4-4.9,1-12.4-4-15.4c-5.5-3.2-12.1-1-15.4,4
		c-8.3,12.4-16.8,24.9-25.3,37.3c-3.4,4.9-1,12.4,4,15.4C593.1,145.5,599.4,143.2,603,138.2L603,138.2z"/>
	<path class="st0" d="M643.9,231.5c15-1,30-2.2,44.8-3.2c5.9-0.4,11.5-4.9,11.3-11.3c-0.2-5.7-4.9-11.7-11.3-11.3
		c-15,1-30,2.2-44.8,3.2c-5.9,0.4-11.5,4.9-11.3,11.3C632.8,225.9,637.6,231.9,643.9,231.5z"/>
	<path class="st0" d="M509.6,306.7v16c0,1,0,2,0,3.2c0,0.6,0,1.4-0.2,2c0-0.6,0.4-2.2,0,0c-0.4,1.2-0.6,2.6-1,4
		c-0.2,0.6-1.2,3.4-0.8,2.4c0.4-1-1,1.8-1.2,2.2c-0.6,1-1.2,2-1.8,3c-0.4,0.4-0.6,0.8-0.8,1.2c1-1.2,0.2-0.4-0.4,0.4
		c-0.8,0.8-1.6,1.6-2.4,2.4c-0.4,0.4-0.8,0.6-1.2,1c-1.2,1.2,1.4-1,0,0c-2,1.4-4.1,2.6-6.3,3.8c2-1-0.8,0.4-1.6,0.6
		c-1.2,0.4-2.2,0.6-3.4,1c-0.6,0.2-1.4,0.4-2,0.4c0.2,0,1.8-0.2,0.4,0c-1.2,0-2.6,0.2-3.8,0.2h-3.6c-1,0-2.2,0-3.2-0.2
		c-2.2-0.2-0.6,0,0,0c-0.6-0.2-1.4-0.2-2-0.4c-1.2-0.4-2.6-0.6-3.8-1c-0.6-0.2-2.8-1.2-1-0.4c-2.4-1.2-4.5-2.4-6.7-4
		c1.6,1.2-1-1-1.4-1.4c-1-1-1.8-1.8-2.6-2.8c1.4,1.6-0.8-1-1.2-1.6c-0.6-1.2-1.2-2.2-2-3.4c-1-1.8-0.4-0.6,0,0
		c-0.2-0.6-0.4-1.2-0.6-1.8c-0.4-1.4-1-2.8-1.2-4.3c0-0.6-0.2-1-0.4-1.6c0.4,1.6,0,0.4,0-0.6s0-2,0-3c-2.8,3.6-5.5,7.1-8.3,10.9
		c22.9-4.9,45.8-9.7,68.7-14.4c3.2-0.6,6.5-1.4,9.7-2.2c5.9-1.2,9.3-8.3,7.9-13.8c-1.8-6.1-7.9-9.1-13.8-7.9
		c-22.9,4.9-45.8,9.7-68.7,14.4c-3.2,0.6-6.5,1.4-9.7,2.2c-4.7,1-8.3,6.1-8.3,10.9c0,26.9,22.1,48.6,48.8,49
		c11.7,0.2,22.9-2.6,32.4-9.5c11.1-8.5,18-20.5,19.6-34.4c0.8-7.1,0.4-14.4,0.4-21.5c0-5.9-5.1-11.5-11.3-11.3
		C514.7,295.7,509.6,300.4,509.6,306.7L509.6,306.7z"/>
</g>
</svg>
