<?xml version="1.0" encoding="utf-8"?>
<!-- Generator: Adobe Illustrator 24.1.1, SVG Export Plug-In . SVG Version: 6.00 Build 0)  -->
<svg version="1.1" id="Layer_1" xmlns="http://www.w3.org/2000/svg" xmlns:xlink="http://www.w3.org/1999/xlink" x="0px" y="0px"
	 viewBox="0 0 794 663" style="enable-background:new 0 0 794 663;" xml:space="preserve">
<style type="text/css">
	.st0{fill:#3F3D56;}
	.st1{fill:#FFFFFF;}
	.st2{fill:#E6E6E6;}
	.st3{fill:url(#a320c467-7a2a-401b-bd10-29e63d92c9f6_1_);}
	.st4{fill:url(#b837b54e-04c2-4911-922a-03186401a785_1_);}
	.st5{fill:#9F616A;}
	.st6{fill:#2F2E41;}
	.st7{fill:#A0616A;}
	.st8{fill:#1F4297;}
	.st9{fill:#CACACA;}
</style>
<path id="ef8ddbf2-422b-4660-b5cd-bfa08ac6b7d7-322" class="st0" d="M720.4,224.9l-3.2-1.1l29.4-87.9c9.4-28.1-5.8-58.4-33.8-67.9
	l0,0l0,0L526.7,5.8c-28.1-9.4-58.4,5.8-67.9,33.8l0,0l0,0L297.3,521.6c-9.4,28.1,5.8,58.4,33.8,67.9l0,0l0,0l0,0l186.2,62.3
	c28.1,9.4,58.4-5.8,67.9-33.8l0,0l111.1-331.6l3.2,1.1L720.4,224.9z"/>
<path id="fd0ceacc-b1f5-4281-8e70-8593bae263ea-323" class="st1" d="M710.4,82.1L686.1,74c0.7,10.5-7.3,19.5-17.8,20.2
	c-2.5,0.2-4.9-0.2-7.3-0.9L554.5,57.5c-10-3.3-15.3-14.1-12-24.1c0.8-2.4,2-4.5,3.6-6.3l-22.7-7.6c-21-7-43.6,4.3-50.7,25.3
	L311.5,526c-7,21,4.3,43.6,25.3,50.7l0,0l187,62.7c21,7,43.6-4.3,50.7-25.3l0,0l161.2-481.3C742.7,111.8,731.4,89.1,710.4,82.1
	L710.4,82.1z"/>
<path id="ff2c3c85-1cba-4c81-ad38-62c498a2a918-324" class="st0" d="M663.6,243.5L464,176.6c-2-0.7-3.1-2.9-2.5-4.9l16.6-49.5
	c0.7-2,2.9-3.1,4.9-2.5l199.6,66.9c2,0.7,3.1,2.9,2.5,4.9l-16.6,49.5C668,243.1,665.7,244.2,663.6,243.5L663.6,243.5z M482.6,121.2
	c-1.2-0.4-2.5,0.3-3,1.4l-16.6,49.5c-0.4,1.2,0.3,2.5,1.4,3L664.2,242c1.2,0.4,2.5-0.3,3-1.4l16.6-49.5c0.4-1.2-0.3-2.5-1.4-3
	L482.6,121.2z"/>
<path id="a7bacb06-5dda-4315-86f5-9fde62022a18-325" class="st0" d="M598,439.4l-199.6-66.9c-2-0.7-3.1-2.9-2.5-4.9l30.7-91.7
	c0.7-2,2.9-3.1,4.9-2.5l199.6,66.8c2,0.7,3.1,2.9,2.5,4.9L603,437C602.3,439,600.1,440.1,598,439.4z M431.1,275
	c-1.2-0.4-2.5,0.3-3,1.4l-30.7,91.7c-0.4,1.2,0.3,2.5,1.4,3L598.5,438c1.2,0.4,2.5-0.3,3-1.4l30.7-91.7c0.4-1.2-0.3-2.5-1.4-3
	L431.1,275z"/>
<path id="a78be333-998c-4fe1-92ac-6c17265b914a-326" class="st2" d="M636.4,319.9l-88.7-29.7c-2-0.7-3.1-2.9-2.5-4.9l16.6-49.5
	c0.7-2,2.9-3.1,4.9-2.5l88.7,29.7c2,0.7,3.1,2.9,2.5,4.9l-16.6,49.5C640.7,319.5,638.4,320.6,636.4,319.9z M566.3,234.7
	c-1.2-0.4-2.5,0.3-3,1.4l-16.6,49.5c-0.4,1.2,0.3,2.5,1.4,3l88.7,29.7c1.2,0.4,2.5-0.3,3-1.4l16.6-49.5c0.4-1.2-0.3-2.5-1.4-3
	L566.3,234.7z"/>
<path id="b3f2a87a-cc28-4d1a-8acd-979c53a8dd39-327" class="st2" d="M447,522.1l-88.7-29.7c-2-0.7-3.1-2.9-2.5-4.9l31-92.4
	c0.7-2,2.9-3.1,4.9-2.5l88.7,29.7c2,0.7,3.1,2.9,2.5,4.9l-31,92.4C451.3,521.6,449.1,522.7,447,522.1z M391.3,394
	c-1.2-0.4-2.5,0.3-3,1.4l-31,92.4c-0.4,1.2,0.3,2.5,1.4,3l88.7,29.7c1.2,0.4,2.5-0.3,3-1.4l31-92.4c0.4-1.2-0.3-2.5-1.4-3L391.3,394
	z"/>
<path id="bb07296c-c3fc-491e-8a85-4137ac9f94aa-328" class="st2" d="M556.5,558.7L467.8,529c-2-0.7-3.1-2.9-2.5-4.9l31-92.4
	c0.7-2,2.9-3.1,4.9-2.5l88.7,29.6c2,0.7,3.1,2.9,2.5,4.9l-31,92.4C560.7,558.3,558.5,559.4,556.5,558.7z M500.7,430.6
	c-1.2-0.4-2.5,0.3-3,1.4l-31,92.4c-0.4,1.2,0.3,2.5,1.4,3l88.7,29.7c1.2,0.4,2.5-0.3,3-1.4l31-92.4c0.4-1.2-0.3-2.5-1.4-3
	L500.7,430.6z"/>
<linearGradient id="a320c467-7a2a-401b-bd10-29e63d92c9f6_1_" gradientUnits="userSpaceOnUse" x1="434.4078" y1="348.7412" x2="466.1665" y2="348.7412" gradientTransform="matrix(1 0 0 -1 0 664.6)">
	<stop  offset="0" style="stop-color:#FAED7C"/>
	<stop  offset="1" style="stop-color:#F1B31D"/>
</linearGradient>
<circle id="a320c467-7a2a-401b-bd10-29e63d92c9f6" class="st3" cx="450.2" cy="315.9" r="15.9"/>
<path id="b9e531ec-0ab3-46c5-ae54-579cfd03e1f5-329" class="st2" d="M488.4,317.5c-1.4-0.5-2.9,0.3-3.4,1.7
	c-0.5,1.4,0.3,2.9,1.7,3.4l0,0L605,362.2c1.4,0.5,2.9-0.3,3.4-1.7c0.5-1.4-0.3-2.9-1.7-3.4l0,0l0,0L488.4,317.5z"/>
<path id="ad39a0b5-50a7-48f2-b8cb-2db0547457f7-330" class="st2" d="M483.4,332.5c-1.4-0.5-2.9,0.3-3.4,1.7
	c-0.5,1.4,0.3,2.9,1.7,3.4l0,0l50.9,17.1c1.4,0.5,2.9-0.3,3.4-1.7c0.5-1.4-0.3-2.9-1.7-3.4l0,0l0,0L483.4,332.5z"/>
<path id="aac09e93-991f-40c6-86d0-b318c2c011d1-331" class="st2" d="M429,341.1c-1.9-0.7-3.8,0-4.3,1.4c-0.5,1.4,0.7,3,2.6,3.6
	l163.2,54.6c1.9,0.7,3.8,0,4.3-1.4c0.5-1.4-0.7-3-2.6-3.6L429,341.1z"/>
<path id="f158e8ac-632b-46f0-9cf0-44644e76b9a4-332" class="st2" d="M423.9,356.1c-1.9-0.7-3.8,0-4.3,1.4c-0.5,1.4,0.7,3,2.6,3.6
	l163.2,54.6c1.9,0.7,3.8,0,4.3-1.4s-0.7-3-2.6-3.6L423.9,356.1z"/>
<linearGradient id="b837b54e-04c2-4911-922a-03186401a785_1_" gradientUnits="userSpaceOnUse" x1="489.3783" y1="507.9239" x2="521.1369" y2="507.9239" gradientTransform="matrix(1 0 0 -1 0 664.6)">
	<stop  offset="0" style="stop-color:#FAED7C"/>
	<stop  offset="1" style="stop-color:#F1B31D"/>
</linearGradient>
<circle id="b837b54e-04c2-4911-922a-03186401a785" class="st4" cx="505.2" cy="156.7" r="15.9"/>
<path id="b88d563f-8e66-4064-9d4c-186cef5c87ad-333" class="st2" d="M543.4,158.3c-1.4-0.4-2.9,0.3-3.4,1.7
	c-0.4,1.4,0.3,2.9,1.7,3.4l0,0L660,203c1.4,0.5,2.9-0.3,3.4-1.7c0.5-1.4-0.3-2.9-1.7-3.4l0,0l0,0L543.4,158.3z"/>
<path id="b990f7ae-58a3-4b3d-8dda-750e08426c01-334" class="st2" d="M538.4,173.3c-1.4-0.5-2.9,0.3-3.4,1.7
	c-0.5,1.4,0.3,2.9,1.7,3.4l0,0l50.9,17.1c1.4,0.5,2.9-0.3,3.4-1.7c0.5-1.4-0.3-2.9-1.7-3.4l0,0L538.4,173.3z"/>
<path id="a3d5ec06-af2b-4b16-90b4-10a3978e7f3c-335" class="st2" d="M527,283.2l-83.2-27.9l31-27.3c1.8-1.5,4.4-1.4,5.9,0.3
	c0.5,0.6,0.8,1.3,1,1.9l3.6,17.3l22.5-19.9c2.2-1.9,5.5-1.7,7.4,0.4c0.6,0.7,1,1.5,1.2,2.5L527,283.2z M446.8,254.7l78.1,26.1
	l-10.1-50c-0.4-2-2.4-3.3-4.4-2.9c-0.7,0.2-1.3,0.4-1.7,0.8l-24.5,21.7l-4.1-20c-0.3-1.4-1.7-2.4-3.1-2.1c-0.4,0.1-0.8,0.3-1.3,0.6
	L446.8,254.7z"/>
<path id="ad2d9a36-cccf-4762-a8b2-ae4cbcf1fc8d-336" class="st2" d="M527,283.3l-88.7-29.7c-2-0.7-3.1-2.9-2.5-4.9l16.6-49.5
	c0.7-2,2.9-3.1,4.9-2.5l88.7,29.7c2,0.7,3.1,2.9,2.5,4.9L532,280.8C531.3,282.9,529.1,284,527,283.3z M456.9,198.1
	c-1.2-0.4-2.5,0.3-3,1.4l-16.7,49.6c-0.4,1.2,0.3,2.5,1.4,3l88.7,29.7c1.2,0.4,2.5-0.3,3-1.4l16.6-49.5c0.4-1.2-0.3-2.5-1.4-3
	L456.9,198.1z"/>
<path id="ff89cf89-8b1b-4dc3-86a1-ad04f586c716-337" class="st2" d="M404.3,417.9c-1.4-0.4-2.9,0.3-3.4,1.7
	c-0.5,1.4,0.3,2.9,1.7,3.4l0,0l50.9,17.1c1.4,0.4,2.9-0.3,3.4-1.7c0.5-1.4-0.3-2.9-1.7-3.4l0,0L404.3,417.9z"/>
<path id="bdb6c5c0-7147-4e18-95bd-6c2e13251f4c-338" class="st2" d="M399.3,432.7c-1.4-0.4-2.9,0.3-3.4,1.7
	c-0.5,1.4,0.3,2.9,1.7,3.4l0,0l50.9,17.1c1.4,0.4,2.9-0.3,3.4-1.7c0.4-1.4-0.3-2.9-1.7-3.4L399.3,432.7z"/>
<path id="e711c4eb-2570-4817-927e-bed9d0e120e8-339" class="st2" d="M544,533.3c1.4,0.4,2.9-0.3,3.4-1.7c0.5-1.4-0.3-2.9-1.7-3.4
	l0,0l-50.9-17c-1.4-0.4-2.9,0.3-3.4,1.7c-0.5,1.4,0.3,2.9,1.7,3.4L544,533.3z"/>
<path id="ac126517-37f4-4549-a663-190a6b7a92b8-340" class="st2" d="M548.9,518.5c1.4,0.4,2.9-0.3,3.4-1.7c0.5-1.4-0.3-2.9-1.7-3.4
	l-50.9-17.1c-1.4-0.4-2.9,0.3-3.4,1.7c-0.5,1.4,0.3,2.9,1.7,3.4L548.9,518.5z"/>
<path id="b0744aa1-6c52-44f5-8f87-5c835d602c4a-341" class="st2" d="M628.4,281.7c1.4,0.5,2.9-0.3,3.4-1.7c0.5-1.4-0.3-2.9-1.7-3.4
	l0,0l-50.9-17.1c-1.4-0.5-2.9,0.3-3.4,1.7c-0.5,1.4,0.3,2.9,1.7,3.4l0,0L628.4,281.7z"/>
<path id="f9fb24f1-195d-4908-aecd-a74b480672b4-342" class="st2" d="M624.1,293.5c1.4,0.5,2.9-0.3,3.4-1.7c0.5-1.4-0.3-2.9-1.7-3.4
	l0,0l-50.9-17.1c-1.4-0.5-2.9,0.3-3.4,1.7c-0.5,1.4,0.3,2.9,1.7,3.4l0,0L624.1,293.5z"/>
<g id="fb1fd747-6b67-4cb9-858c-4d0f6fa12359">
	<circle id="a5dd78ed-2df1-42f3-9bac-4ba46f4211fe" class="st5" cx="197.9" cy="237.5" r="26.9"/>
	<path id="f00778a4-99fe-4ded-96db-b98a687eaf54-343" class="st6" d="M182.3,240.8c2.1-0.2,4.2,0.6,6.3,0.8
		c7.6,1,15.5-4.5,17.2-11.9c0.2-1,0.4-1.9,0.8-2.9c1.2-1.9,3.8-2.3,6-1.9s4.2,1.4,6.5,1.6c3.5,0.2,6.8-1.9,8.6-4.8
		c1.8-3,2.5-6.5,2.1-10l-1.7,1.7c-0.7-1.4-0.9-3-0.8-4.6c-1.8-0.5-3.6,0-5,1.3c-1.4,0.2-0.3-2.7-1.4-3.7c-0.5-0.3-1.2-0.4-1.8-0.3
		c-3.1,0-5.6-2.4-8-4.2c-4.2-3.3-9.1-5.6-14.5-6.6c-3.5-0.7-7.2-0.8-10.6,0.5c-2.7,1.2-5.1,2.9-7.1,5.1c-5.2,5-9.8,10.8-11.9,17.8
		c-1.8,5.7-1.8,11.7-0.2,17.3c0.8,3,3.5,13,7.4,13.2C179.2,249.5,176.3,241.2,182.3,240.8z"/>
	<path id="edf96d50-4ce8-4ce1-a197-c1cb2bbecc75-344" class="st7" d="M145,453c5.7-3.9,7.1-11.6,3.2-17.3c-0.4-0.6-0.8-1.2-1.4-1.7
		l4.8-107.2l-24.4,2.7l1.4,104.9c-4.6,5.2-4.1,13,1,17.6C133.9,455.9,140.3,456.3,145,453L145,453z"/>
	<path id="a7c32b38-e526-409e-9958-50b8ffad01a0-345" class="st7" d="M189.6,634.5l14,2.5l13.8-52.5l-18.3-3.6L189.6,634.5z"/>
	<path id="b6720e1c-54ee-4da4-8e92-2cd2033f0b28-346" class="st6" d="M228,654.6l-43.7-7.7l3-16.9l26.8,4.7
		C223.4,636.3,229.7,645.3,228,654.6L228,654.6z"/>
	<path id="aff6290b-fbd1-41c3-8a68-a3ddd60c11e3-347" class="st7" d="M151.4,641.5h14.1l6.7-54.5h-20.9L151.4,641.5z"/>
	<path id="f02f1576-8f9c-43fb-a0f1-30b59e5759a8-348" class="st6" d="M192.8,654.6h-44.4v-17.2h27.2
		C185.1,637.4,192.8,645.1,192.8,654.6L192.8,654.6L192.8,654.6z"/>
	<path id="b96fab23-cef4-43fc-8373-5902972d74dd-349" class="st6" d="M210.4,622c-0.3,0-0.4,0-0.7,0l-16.7-1.4
		c-3-0.3-5.3-3.1-4.9-6.3l0,0c0-0.1,0-0.2,0-0.3l16.5-81.5l-10.4-54.7c-0.2-1-1.2-1.7-2.2-1.5c-0.8,0.2-1.4,0.8-1.5,1.7l-15.1,139
		c-0.3,3-3,5.3-6,5.1l-15.6-0.6c-2.9-0.2-5.1-2.5-5.2-5.3l1.3-168.1L231,438l5.7,87.6v0.1L216,617.6C215.2,620.2,213,622,210.4,622z
		"/>
	<path id="b76097f2-52bd-497e-a273-af776f029639-350" class="st8" d="M203.2,461c-4.4,0-8.8-1.2-12.5-3.6
		c-13.7-8.5-29.3-5.2-37.4-2.4c-1.6,0.6-3.4,0.3-4.9-0.6c-1.4-0.9-2.4-2.4-2.5-4.1l-14.6-131c-2.5-21.9,10.7-42.5,31.5-49.1l0,0
		c0.8-0.3,1.6-0.5,2.4-0.7c13-3.6,26.9-1.1,38,6.6c11.2,7.8,18.5,20.2,19.8,33.8L235.2,442c0.2,1.7-0.5,3.5-1.8,4.7
		C229.1,450.6,216.5,461,203.2,461z"/>
	<path id="b7c0fd9c-4296-4103-8950-cd245101458a-351" class="st8" d="M158.5,347.5l-33.1-3.6c-3.6-0.4-6.3-3.6-5.8-7.3
		c0-0.3,0.1-0.7,0.2-0.9l8.5-32.1c1.1-10.1,10.1-17.3,20.1-16.2s17.3,10.1,16.2,20.1l0,0c0,0.1,0,0.2,0,0.2l1.3,33.1
		c0.2,3.6-2.7,6.7-6.3,6.9C159.1,347.6,158.8,347.6,158.5,347.5z"/>
	<path id="e4415faf-95a5-4fec-be4a-0e91d9da7267-352" class="st7" d="M235,448.4c5.2-4.5,5.7-12.3,1.1-17.5c-0.5-0.5-1-1-1.6-1.5
		l-8.1-107l-23.9,5.4l14,104.2c-3.9,5.7-2.5,13.4,3.1,17.3C224.3,452.6,230.7,452.2,235,448.4L235,448.4z"/>
	<path id="bebc4112-7456-4b85-95f3-28c2273ba549-353" class="st8" d="M193.2,340.8c-1.4-1.3-2.2-3.1-2.1-5.1l1.3-33.1
		c-1.1-10.1,6.2-19,16.2-20.1c10-1.1,18.9,6.1,20.1,16.1l8.5,32.1c0.9,3.6-1.2,7.1-4.7,8c-0.3,0.1-0.6,0.2-0.9,0.2l-33.1,3.6
		C196.5,342.7,194.6,342.1,193.2,340.8L193.2,340.8z"/>
</g>
<rect id="a6aa4d97-c7f3-4c66-8fef-1a835a984f6d" x="33.8" y="654.6" class="st9" width="624.4" height="1.7"/>
</svg>
