<?xml version="1.0" encoding="utf-8"?>
<!-- Generator: Adobe Illustrator 24.1.1, SVG Export Plug-In . SVG Version: 6.00 Build 0)  -->
<svg version="1.1" id="Layer_1" xmlns="http://www.w3.org/2000/svg" xmlns:xlink="http://www.w3.org/1999/xlink" x="0px" y="0px"
	 viewBox="0 0 700 700" style="enable-background:new 0 0 700 700;" xml:space="preserve">
<style type="text/css">
	.st0{fill:#1F4297;}
	.st1{fill:none;}
</style>
<g>
	<path class="st0" d="M476,0H199.7c-28.7,0-52,23.4-52,52v596c0,28.7,23.4,52,52,52H476c28.7,0,52-23.4,52-52V52.2
		C528,23.3,504.8,0,476,0z M163.4,113.1H512v473.2H163.4V113.1z M199.7,15.9H476c19.9,0,36.1,16.2,36.1,36.1v45.3H163.4V52
		C163.4,32.1,179.6,15.9,199.7,15.9L199.7,15.9z M476,684.1H199.7c-19.9,0-36.1-16.2-36.1-36.1v-45.8h348.6V648
		C512.2,667.9,496,684.1,476,684.1L476,684.1z"/>
	<path class="st0" d="M303.5,65.2h68.7c4.4,0,7.9-3.5,7.9-7.9s-3.5-7.9-7.9-7.9h-68.7c-4.4,0-7.9,3.5-7.9,7.9
		C295.6,61.5,299.1,65.2,303.5,65.2z"/>
	<path class="st0" d="M643.1,126.9H629v-14.1c0-4.4-3.5-7.9-7.9-7.9s-7.9,3.5-7.9,7.9v14.1h-14.1c-4.4,0-7.9,3.5-7.9,7.9
		c0,4.4,3.5,7.9,7.9,7.9h14.1v14.1c0,4.4,3.5,7.9,7.9,7.9s7.9-3.5,7.9-7.9v-14.1h14.1c4.4,0,7.9-3.5,7.9-7.9
		C651,130.4,647.5,126.9,643.1,126.9L643.1,126.9z"/>
	<path class="st0" d="M344.9,634.4h-14.1c-4.4,0-7.9,3.5-7.9,7.9s3.5,7.9,7.9,7.9h14.1c4.4,0,7.9-3.5,7.9-7.9
		C352.9,638.1,349.3,634.4,344.9,634.4z"/>
	<path class="st0" d="M566.8,62.4L566.8,62.4c-4.4,0.2-7.9,3.7-7.9,7.9l0.2,14.1c0.2,4.4,3.7,7.8,7.9,7.8h0.2
		c4.4-0.2,7.9-3.7,7.8-7.9l-0.2-14.1C574.6,65.9,571,62.4,566.8,62.4z"/>
	<path class="st0" d="M566.8,496.8L566.8,496.8c-4.4,0.2-7.9,3.7-7.9,7.9l0.2,14.1c0.2,4.4,3.7,7.8,7.9,7.8h0.2
		c4.4-0.2,7.9-3.7,7.8-7.9l-0.2-14.1C574.6,500.3,571,496.8,566.8,496.8z"/>
	<path class="st0" d="M596.9,214.8L596.9,214.8c-4.4,0.2-7.9,3.7-7.9,7.9l0.2,14.1c0.2,4.4,3.7,7.8,7.9,7.8h0.2
		c4.4-0.2,7.9-3.7,7.8-7.9l-0.2-14.1C604.7,218.4,601.2,214.8,596.9,214.8z"/>
	<path class="st0" d="M108.6,552c-4.4,0.2-7.9,3.7-7.8,7.9L101,574c0.2,4.4,3.7,7.8,7.9,7.8h0.2c4.4-0.2,7.9-3.7,7.8-7.9l-0.2-14.1
		C116.5,555.5,113,552,108.6,552L108.6,552z"/>
	<path class="st0" d="M108.6,175.5c-4.4,0.2-7.9,3.7-7.8,7.9l0.2,14.1c0.2,4.4,3.7,7.8,7.9,7.8h0.2c4.4-0.2,7.9-3.7,7.8-7.9
		l-0.2-14.1C116.5,179.1,113,175.5,108.6,175.5L108.6,175.5z"/>
	<path class="st0" d="M44.3,388.8c-4.4,0.2-7.9,3.7-7.8,7.9l0.2,14.1c0.2,4.4,3.7,7.8,7.9,7.8h0.2c4.4-0.2,7.9-3.7,7.8-7.9
		l-0.2-14.1C52.2,392.1,48.5,388.6,44.3,388.8L44.3,388.8z"/>
	<path class="st0" d="M108.8,501.7c4.4,0,7.9-3.5,7.9-7.9c0-4.4-3.5-7.9-7.9-7.9H98.6v-10.2c0-4.4-3.5-7.9-7.9-7.9
		c-4.4,0-7.9,3.5-7.9,7.9v10.2H72.5c-4.4,0-7.9,3.5-7.9,7.9c0,4.4,3.5,7.9,7.9,7.9h10.2V512c0,4.4,3.5,7.9,7.9,7.9
		c4.4,0,7.9-3.5,7.9-7.9v-10.2H108.8z"/>
	<path class="st0" d="M214.9,277.4c-4.4,0-7.9,3.5-7.9,7.9v44.2c0,4.4,3.5,7.9,7.9,7.9c4.4,0,7.9-3.5,7.9-7.9v-44.2
		C222.6,280.9,219.1,277.4,214.9,277.4L214.9,277.4z"/>
	<path class="st0" d="M249.4,337.5c4.4,0,7.9-3.5,7.9-7.9v-80.4c0-4.4-3.5-7.9-7.9-7.9s-7.9,3.5-7.9,7.9v80.4
		C241.5,334,245,337.5,249.4,337.5z"/>
	<path class="st0" d="M284,187c-4.4,0-7.9,3.5-7.9,7.9v134.6c0,4.4,3.5,7.9,7.9,7.9c4.4,0,7.9-3.5,7.9-7.9V194.9
		C292.1,190.5,288.4,187,284,187L284,187z"/>
	<path class="st0" d="M318.7,337.5c4.4,0,7.9-3.5,7.9-7.9V212.9c0-4.4-3.5-7.9-7.9-7.9c-4.4,0-7.9,3.5-7.9,7.9v116.7
		C310.7,334,314.3,337.5,318.7,337.5L318.7,337.5z"/>
	<path class="st0" d="M353.2,337.5c4.4,0,7.9-3.5,7.9-7.9V167.8c0-4.4-3.5-7.9-7.9-7.9c-4.4,0-7.9,3.5-7.9,7.9v161.8
		C345.5,334,349,337.5,353.2,337.5L353.2,337.5z"/>
	<path class="st0" d="M387.9,337.5c4.4,0,7.9-3.5,7.9-7.9V185.8c0-4.4-3.5-7.9-7.9-7.9c-4.4,0-7.9,3.5-7.9,7.9v143.8
		C380,334,383.5,337.5,387.9,337.5z"/>
	<path class="st0" d="M422.5,337.5c4.4,0,7.9-3.5,7.9-7.9v-80.4c0-4.4-3.5-7.9-7.9-7.9c-4.4,0-7.9,3.5-7.9,7.9v80.4
		C414.7,334,418.2,337.5,422.5,337.5z"/>
	<path class="st0" d="M457.2,277.4c-4.4,0-7.9,3.5-7.9,7.9v44.2c0,4.4,3.5,7.9,7.9,7.9c4.4,0,7.9-3.5,7.9-7.9v-44.2
		C465.1,280.9,461.6,277.4,457.2,277.4L457.2,277.4z"/>
	<path class="st0" d="M255.1,374.7c-13.9,0-25.4,11.5-25.4,25.4s11.5,25.4,25.4,25.4s25.4-11.5,25.4-25.4
		C280.4,386.1,269,374.7,255.1,374.7z M255.1,409.6c-5.3,0-9.5-4.2-9.5-9.5s4.2-9.5,9.5-9.5s9.5,4.2,9.5,9.5
		C264.6,405.3,260.2,409.6,255.1,409.6z"/>
	<path class="st0" d="M432.5,392.1H306.3c-4.4,0-7.9,3.5-7.9,7.9c0,4.4,3.5,7.9,7.9,7.9h126.4c4.4,0,7.9-3.5,7.9-7.9
		C440.5,395.6,436.9,392.1,432.5,392.1L432.5,392.1z"/>
	<path class="st0" d="M255.1,433.2c-13.9,0-25.4,11.5-25.4,25.4c0,13.9,11.5,25.4,25.4,25.4s25.4-11.5,25.4-25.4
		C280.4,444.5,269,433.2,255.1,433.2z M255.1,468.1c-5.3,0-9.5-4.2-9.5-9.5c0-5.3,4.2-9.5,9.5-9.5s9.5,4.2,9.5,9.5
		C264.6,463.8,260.2,468.1,255.1,468.1z"/>
	<path class="st0" d="M432.5,450.6H306.3c-4.4,0-7.9,3.5-7.9,7.9c0,4.4,3.5,7.9,7.9,7.9h126.4c4.4,0,7.9-3.5,7.9-7.9
		C440.5,454.2,436.9,450.6,432.5,450.6L432.5,450.6z"/>
	<path class="st0" d="M255.1,491.7c-13.9,0-25.4,11.5-25.4,25.4c0,13.9,11.5,25.4,25.4,25.4s25.4-11.5,25.4-25.4
		C280.4,503,269,491.7,255.1,491.7z M255.1,526.6c-5.3,0-9.5-4.2-9.5-9.5c0-5.3,4.2-9.5,9.5-9.5s9.5,4.2,9.5,9.5
		C264.6,522.2,260.2,526.6,255.1,526.6z"/>
	<path class="st0" d="M432.5,509H306.3c-4.4,0-7.9,3.5-7.9,7.9c0,4.4,3.5,7.9,7.9,7.9h126.4c4.4,0,7.9-3.5,7.9-7.9
		C440.5,512.5,436.9,509,432.5,509L432.5,509z"/>
</g>
<rect x="36" class="st1" width="623.7" height="700"/>
</svg>
