<?xml version="1.0" encoding="utf-8"?>
<!-- Generator: Adobe Illustrator 24.1.1, SVG Export Plug-In . SVG Version: 6.00 Build 0)  -->
<svg version="1.1" id="Layer_1" xmlns="http://www.w3.org/2000/svg" xmlns:xlink="http://www.w3.org/1999/xlink" x="0px" y="0px"
	 viewBox="0 0 794 663" style="enable-background:new 0 0 794 663;" xml:space="preserve">
<style type="text/css">
	.st0{fill:#F2F2F2;}
	.st1{fill:#3F3D56;}
	.st2{fill:url(#SVGID_1_);}
	.st3{fill:#2F2E41;}
	.st4{fill:#FFFFFF;}
	.st5{fill:#FFB6B6;}
	.st6{fill:url(#SVGID_2_);}
	.st7{fill:url(#SVGID_3_);}
	.st8{fill:url(#SVGID_4_);}
	.st9{fill:url(#SVGID_5_);}
	.st10{fill:#E6E6E6;}
	.st11{opacity:0.2;enable-background:new    ;}
</style>
<circle class="st0" cx="461.9" cy="119.6" r="26.7"/>
<path class="st0" d="M669,542.6c39.7-30.2,58.6-81,46.8-129.5c-0.3-1.2-0.6-2.4-0.9-3.6c-7.9-28.8-27.3-56.1-55.7-65.3
	c-23.8-7.7-49.8-1.8-74.7-4.9c-48.8-6-86.6-45.5-113.2-86.8s-47.1-87.6-82.4-121.7C330.6,74.5,235.5,62.4,163.3,99
	C91,135.7,45,216.9,46.9,297.9c2,81,50,158.4,119.9,199.5c25.7,15.1,55.3,25.8,84.8,22c25.6-3.2,48.9-17,74.4-21.1
	c40.1-6.4,79.9,11.7,114.6,32.8c34.7,21.1,68.2,46.2,107.6,56C586.5,596.7,633.9,569.3,669,542.6z"/>
<path class="st1" d="M612,100.7c-0.9-0.6-1.8-1.1-2.6-1.7c-25.1-16.1-52.1-29.2-80.3-38.9l-6.5,90.2h-41.5V46.9
	c-2.6-0.5-5.2-1.1-7.9-1.5v104.9h-49.3c-56.5,0-102.3-45.8-102.3-102.3l0,0c-2.6,0.6-5.3,1.2-7.9,1.8v100.4h-40.1l-6.2-86
	c-29,11.1-56.5,25.7-81.9,43.5c-0.4,0.3-0.9,0.6-1.3,0.9c-2.2,1.6-4.4,3.1-6.6,4.7v344.2h118.3l-2.1-29l-11.5-159h231.6l-11.5,159
	l-2.1,29h117V104.2C615.5,103,613.8,101.9,612,100.7z M313.8,243.5h-33.4l-6.2-85.3h39.6V243.5z M473.2,243.5h-56.1v-1.7
	c0-3.4-2.8-6.2-6.2-6.2l0,0h-24.3c-3.4,0-6.2,2.8-6.2,6.2l0,0v1.7h-58.7v-85.3h151.5L473.2,243.5z M481.1,243.5v-85.3H522l-6.2,85.3
	H481.1z"/>
<path class="st1" d="M3.6,479.6c8.7,10.3,18.1,20,28.1,29l730.6,1c10-9,19.4-18.7,28.1-29L3.6,479.6z"/>
<path class="st1" d="M499,387v85.7c0,2.3,1.8,4.1,4.1,4.1h127c2.3,0,4.1-1.8,4.1-4.1v-85.7c0-2.3-1.8-4.1-4.1-4.1h-127
	C500.9,382.9,499,384.6,499,387z"/>
<linearGradient id="SVGID_1_" gradientUnits="userSpaceOnUse" x1="502" y1="234.85" x2="631.3" y2="234.85" gradientTransform="matrix(1 0 0 -1 0 664.7)">
	<stop  offset="0" style="stop-color:#FAED7C"/>
	<stop  offset="1" style="stop-color:#F1B31D"/>
</linearGradient>
<path class="st2" d="M502,388.1v83.6c0,1.2,1,2.2,2.2,2.2h124.9c1.2,0,2.2-1,2.2-2.2v-83.6c0-1.2-1-2.2-2.2-2.2H504.2
	C503,385.9,502,386.8,502,388.1z"/>
<path class="st3" d="M496.4,489.4c0.5,0.6,1.2,0.9,1.9,0.9h136c1.4,0,2.5-1.1,2.5-2.5c0-0.2,0-0.3-0.1-0.5l-2.1-10
	c-0.2-0.8-0.8-1.5-1.6-1.8c-0.3-0.1-0.6-0.2-0.9-0.2H500.4c-0.3,0-0.6,0.1-0.9,0.2c-0.8,0.3-1.4,1-1.6,1.8l-2.1,10
	C495.7,488.1,495.9,488.8,496.4,489.4z"/>
<path class="st1" d="M630.7,479.6h-3.2c-0.3,0-0.5-0.2-0.5-0.5v-1.5c0-0.3,0.2-0.5,0.5-0.5h3.2c0.3,0,0.5,0.2,0.5,0.5v1.5
	C631.2,479.4,631,479.6,630.7,479.6z"/>
<path class="st1" d="M622.4,479.6h-3.2c-0.3,0-0.5-0.2-0.5-0.5v-1.5c0-0.3,0.2-0.5,0.5-0.5h3.2c0.3,0,0.5,0.2,0.5,0.5v1.5
	C622.9,479.4,622.6,479.6,622.4,479.6z"/>
<path class="st1" d="M614,479.6h-3.2c-0.3,0-0.5-0.2-0.5-0.5v-1.5c0-0.3,0.2-0.5,0.5-0.5h3.2c0.3,0,0.5,0.2,0.5,0.5v1.5
	C614.5,479.4,614.3,479.6,614,479.6z"/>
<path class="st1" d="M605.6,479.6h-3.2c-0.3,0-0.5-0.2-0.5-0.5v-1.5c0-0.3,0.2-0.5,0.5-0.5h3.2c0.3,0,0.5,0.2,0.5,0.5v1.5
	C606.1,479.4,605.9,479.6,605.6,479.6z"/>
<path class="st1" d="M597.2,479.6H594c-0.3,0-0.5-0.2-0.5-0.5v-1.5c0-0.3,0.2-0.5,0.5-0.5h3.2c0.3,0,0.5,0.2,0.5,0.5v1.5
	C597.7,479.4,597.5,479.6,597.2,479.6z"/>
<path class="st1" d="M588.9,479.6h-3.3c-0.3,0-0.5-0.2-0.5-0.5v-1.5c0-0.3,0.2-0.5,0.5-0.5h3.2c0.3,0,0.5,0.2,0.5,0.5v1.5
	C589.3,479.4,589.1,479.6,588.9,479.6z"/>
<path class="st1" d="M580.5,479.6h-3.2c-0.3,0-0.5-0.2-0.5-0.5v-1.5c0-0.3,0.2-0.5,0.5-0.5h3.2c0.3,0,0.5,0.2,0.5,0.5v1.5
	C581,479.4,580.8,479.6,580.5,479.6z"/>
<path class="st1" d="M572.1,479.6h-3.2c-0.3,0-0.5-0.2-0.5-0.5v-1.5c0-0.3,0.2-0.5,0.5-0.5h3.2c0.3,0,0.5,0.2,0.5,0.5v1.5
	C572.6,479.4,572.4,479.6,572.1,479.6z"/>
<path class="st1" d="M563.7,479.6h-3.2c-0.3,0-0.5-0.2-0.5-0.5v-1.5c0-0.3,0.2-0.5,0.5-0.5h3.2c0.3,0,0.5,0.2,0.5,0.5v1.5
	C564.2,479.4,564,479.6,563.7,479.6z"/>
<path class="st1" d="M555.4,479.6h-3.2c-0.3,0-0.5-0.2-0.5-0.5v-1.5c0-0.3,0.2-0.5,0.5-0.5h3.2c0.3,0,0.5,0.2,0.5,0.5v1.5
	C555.8,479.4,555.6,479.6,555.4,479.6z"/>
<path class="st1" d="M547,479.6h-3.2c-0.3,0-0.5-0.2-0.5-0.5v-1.5c0-0.3,0.2-0.5,0.5-0.5h3.2c0.3,0,0.5,0.2,0.5,0.5v1.5
	C547.5,479.4,547.2,479.6,547,479.6z"/>
<path class="st1" d="M538.6,479.6h-3.2c-0.3,0-0.5-0.2-0.5-0.5v-1.5c0-0.3,0.2-0.5,0.5-0.5h3.2c0.3,0,0.5,0.2,0.5,0.5v1.5
	C539.1,479.4,538.9,479.6,538.6,479.6z"/>
<path class="st1" d="M530.2,479.6H527c-0.3,0-0.5-0.2-0.5-0.5v-1.5c0-0.3,0.2-0.5,0.5-0.5h3.2c0.3,0,0.5,0.2,0.5,0.5v1.5
	C530.7,479.4,530.5,479.6,530.2,479.6z"/>
<path class="st1" d="M521.8,479.6h-3.2c-0.3,0-0.5-0.2-0.5-0.5v-1.5c0-0.3,0.2-0.5,0.5-0.5h3.2c0.3,0,0.5,0.2,0.5,0.5v1.5
	C522.3,479.4,522.1,479.6,521.8,479.6z"/>
<path class="st1" d="M513.5,479.6h-3.2c-0.3,0-0.5-0.2-0.5-0.5v-1.5c0-0.3,0.2-0.5,0.5-0.5h3.2c0.3,0,0.5,0.2,0.5,0.5v1.5
	C514,479.4,513.7,479.6,513.5,479.6z"/>
<path class="st1" d="M505.1,479.6h-3.2c-0.3,0-0.5-0.2-0.5-0.5v-1.5c0-0.3,0.2-0.5,0.5-0.5h3.2c0.3,0,0.5,0.2,0.5,0.5v1.5
	C505.6,479.4,505.4,479.6,505.1,479.6z"/>
<path class="st1" d="M630.8,483.8h-3.2c-0.3,0-0.5-0.2-0.5-0.5v-1.5c0-0.3,0.2-0.5,0.5-0.5h3.2c0.3,0,0.5,0.2,0.5,0.5v1.5
	C631.3,483.6,631.1,483.8,630.8,483.8z"/>
<path class="st1" d="M622.5,483.8h-3.2c-0.3,0-0.5-0.2-0.5-0.5v-1.5c0-0.3,0.2-0.5,0.5-0.5h3.2c0.3,0,0.5,0.2,0.5,0.5v1.5
	C623,483.6,622.7,483.8,622.5,483.8z"/>
<path class="st1" d="M614.1,483.8h-3.2c-0.3,0-0.5-0.2-0.5-0.5v-1.5c0-0.3,0.2-0.5,0.5-0.5h3.2c0.3,0,0.5,0.2,0.5,0.5v1.5
	C614.6,483.6,614.4,483.8,614.1,483.8z"/>
<path class="st1" d="M605.7,483.8h-3.2c-0.3,0-0.5-0.2-0.5-0.5v-1.5c0-0.3,0.2-0.5,0.5-0.5h3.2c0.3,0,0.5,0.2,0.5,0.5v1.5
	C606.2,483.6,606,483.8,605.7,483.8z"/>
<path class="st1" d="M597.3,483.8h-3.2c-0.3,0-0.5-0.2-0.5-0.5v-1.5c0-0.3,0.2-0.5,0.5-0.5h3.2c0.3,0,0.5,0.2,0.5,0.5v1.5
	C597.8,483.6,597.6,483.8,597.3,483.8z"/>
<path class="st1" d="M589,483.8h-3.2c-0.3,0-0.5-0.2-0.5-0.5v-1.5c0-0.3,0.2-0.5,0.5-0.5h3.2c0.3,0,0.5,0.2,0.5,0.5v1.5
	C589.4,483.6,589.2,483.8,589,483.8z"/>
<path class="st1" d="M580.6,483.8h-3.2c-0.3,0-0.5-0.2-0.5-0.5v-1.5c0-0.3,0.2-0.5,0.5-0.5h3.2c0.3,0,0.5,0.2,0.5,0.5v1.5
	C581.1,483.6,580.9,483.8,580.6,483.8z"/>
<path class="st1" d="M572.2,483.8H569c-0.3,0-0.5-0.2-0.5-0.5v-1.5c0-0.3,0.2-0.5,0.5-0.5h3.2c0.3,0,0.5,0.2,0.5,0.5v1.5
	C572.7,483.6,572.5,483.8,572.2,483.8z"/>
<path class="st1" d="M563.8,483.8h-3.2c-0.3,0-0.5-0.2-0.5-0.5v-1.5c0-0.3,0.2-0.5,0.5-0.5h3.2c0.3,0,0.5,0.2,0.5,0.5v1.5
	C564.3,483.6,564.1,483.8,563.8,483.8z"/>
<path class="st1" d="M555.5,483.8h-3.2c-0.3,0-0.5-0.2-0.5-0.5v-1.5c0-0.3,0.2-0.5,0.5-0.5h3.2c0.3,0,0.5,0.2,0.5,0.5v1.5
	C555.9,483.6,555.7,483.8,555.5,483.8z"/>
<path class="st1" d="M547.1,483.8h-3.2c-0.3,0-0.5-0.2-0.5-0.5v-1.5c0-0.3,0.2-0.5,0.5-0.5h3.2c0.3,0,0.5,0.2,0.5,0.5v1.5
	C547.6,483.6,547.3,483.8,547.1,483.8z"/>
<path class="st1" d="M538.7,483.8h-3.2c-0.3,0-0.5-0.2-0.5-0.5v-1.5c0-0.3,0.2-0.5,0.5-0.5h3.2c0.3,0,0.5,0.2,0.5,0.5v1.5
	C539.2,483.6,539,483.8,538.7,483.8z"/>
<path class="st1" d="M530.3,483.8h-3.2c-0.3,0-0.5-0.2-0.5-0.5v-1.5c0-0.3,0.2-0.5,0.5-0.5h3.2c0.3,0,0.5,0.2,0.5,0.5v1.5
	C530.8,483.6,530.6,483.8,530.3,483.8z"/>
<path class="st1" d="M521.9,483.8h-3.2c-0.3,0-0.5-0.2-0.5-0.5v-1.5c0-0.3,0.2-0.5,0.5-0.5h3.2c0.3,0,0.5,0.2,0.5,0.5v1.5
	C522.4,483.6,522.2,483.8,521.9,483.8z"/>
<path class="st1" d="M513.6,483.8h-3.2c-0.3,0-0.5-0.2-0.5-0.5v-1.5c0-0.3,0.2-0.5,0.5-0.5h3.2c0.3,0,0.5,0.2,0.5,0.5v1.5
	C514.1,483.6,513.8,483.8,513.6,483.8z"/>
<path class="st1" d="M505.2,483.8H502c-0.3,0-0.5-0.2-0.5-0.5v-1.5c0-0.3,0.2-0.5,0.5-0.5h3.2c0.3,0,0.5,0.2,0.5,0.5v1.5
	C505.7,483.6,505.5,483.8,505.2,483.8z"/>
<path class="st1" d="M590.6,488.8h-32.5c-0.3,0-0.5-0.2-0.5-0.5v-1.5c0-0.3,0.2-0.5,0.5-0.5h32.5c0.3,0,0.5,0.2,0.5,0.5v1.5
	C591.1,488.6,590.9,488.8,590.6,488.8z"/>
<path class="st4" d="M520.8,404.1h2.8c0.9,0,1.6,0.7,1.6,1.6l0,0c0,0.9-0.7,1.6-1.6,1.6h-2.8c-0.9,0-1.6-0.7-1.6-1.6l0,0
	C519.2,404.8,519.9,404.1,520.8,404.1z"/>
<path class="st4" d="M553.3,404.1h2.8c0.9,0,1.6,0.7,1.6,1.6l0,0c0,0.9-0.7,1.6-1.6,1.6h-2.8c-0.9,0-1.6-0.7-1.6-1.6l0,0
	C551.8,404.8,552.5,404.1,553.3,404.1z"/>
<path class="st4" d="M562.5,404.1h2.8c0.9,0,1.6,0.7,1.6,1.6l0,0c0,0.9-0.7,1.6-1.6,1.6h-2.8c-0.9,0-1.6-0.7-1.6-1.6l0,0
	C561,404.8,561.7,404.1,562.5,404.1z"/>
<path class="st4" d="M529.6,403.9h17.7c0.9,0,1.6,0.7,1.6,1.6l0,0c0,0.9-0.7,1.6-1.6,1.6h-17.7c-0.9,0-1.6-0.7-1.6-1.6l0,0
	C528.1,404.6,528.8,403.9,529.6,403.9z"/>
<path class="st4" d="M573,403.9h17.7c0.9,0,1.6,0.7,1.6,1.6l0,0c0,0.9-0.7,1.6-1.6,1.6H573c-0.9,0-1.6-0.7-1.6-1.6l0,0
	C571.4,404.6,572.1,403.9,573,403.9z"/>
<path class="st4" d="M529.5,411.1h2.8c0.9,0,1.6,0.7,1.6,1.6l0,0c0,0.9-0.7,1.6-1.6,1.6h-2.8c-0.9,0-1.6-0.7-1.6-1.6l0,0
	C527.9,411.9,528.6,411.1,529.5,411.1z"/>
<path class="st4" d="M562,411.1h2.8c0.9,0,1.6,0.7,1.6,1.6l0,0c0,0.9-0.7,1.6-1.6,1.6H562c-0.9,0-1.6-0.7-1.6-1.6l0,0
	C560.4,411.9,561.1,411.1,562,411.1z"/>
<path class="st4" d="M571.2,411.1h2.8c0.9,0,1.6,0.7,1.6,1.6l0,0c0,0.9-0.7,1.6-1.6,1.6h-2.8c-0.9,0-1.6-0.7-1.6-1.6l0,0
	C569.6,411.9,570.3,411.1,571.2,411.1z"/>
<path class="st4" d="M538.3,410.9H556c0.9,0,1.6,0.7,1.6,1.6l0,0c0,0.9-0.7,1.6-1.6,1.6h-17.7c-0.9,0-1.6-0.7-1.6-1.6l0,0
	C536.8,411.6,537.4,410.9,538.3,410.9z"/>
<path class="st4" d="M581.7,410.9h17.7c0.9,0,1.6,0.7,1.6,1.6l0,0c0,0.9-0.7,1.6-1.6,1.6h-17.7c-0.9,0-1.6-0.7-1.6-1.6l0,0
	C580.1,411.6,580.8,410.9,581.7,410.9z"/>
<path class="st4" d="M538.1,418.1h2.8c0.9,0,1.6,0.7,1.6,1.6l0,0c0,0.9-0.7,1.6-1.6,1.6h-2.8c-0.9,0-1.6-0.7-1.6-1.6l0,0
	C536.6,418.9,537.3,418.1,538.1,418.1z"/>
<path class="st4" d="M570.7,418.1h2.8c0.9,0,1.6,0.7,1.6,1.6l0,0c0,0.9-0.7,1.6-1.6,1.6h-2.8c-0.9,0-1.6-0.7-1.6-1.6l0,0
	C569.1,418.9,569.8,418.1,570.7,418.1z"/>
<path class="st4" d="M579.9,418.1h2.8c0.9,0,1.6,0.7,1.6,1.6l0,0c0,0.9-0.7,1.6-1.6,1.6h-2.8c-0.9,0-1.6-0.7-1.6-1.6l0,0
	C578.3,418.9,579,418.1,579.9,418.1z"/>
<path class="st4" d="M547,418h17.7c0.9,0,1.6,0.7,1.6,1.6l0,0c0,0.9-0.7,1.6-1.6,1.6H547c-0.9,0-1.6-0.7-1.6-1.6l0,0
	C545.4,418.6,546.1,418,547,418z"/>
<path class="st4" d="M590.3,418H608c0.9,0,1.6,0.7,1.6,1.6l0,0c0,0.9-0.7,1.6-1.6,1.6h-17.7c-0.9,0-1.6-0.7-1.6-1.6l0,0
	C588.8,418.6,589.5,418,590.3,418z"/>
<path class="st4" d="M546.8,425.3h2.8c0.9,0,1.6,0.7,1.6,1.6l0,0c0,0.9-0.7,1.6-1.6,1.6h-2.8c-0.9,0-1.6-0.7-1.6-1.6l0,0
	C545.2,426,545.9,425.3,546.8,425.3z"/>
<path class="st4" d="M579.3,425.3h2.8c0.9,0,1.6,0.7,1.6,1.6l0,0c0,0.9-0.7,1.6-1.6,1.6h-2.8c-0.9,0-1.6-0.7-1.6-1.6l0,0
	C577.8,426,578.5,425.3,579.3,425.3z"/>
<path class="st4" d="M588.5,425.3h2.8c0.9,0,1.6,0.7,1.6,1.6l0,0c0,0.9-0.7,1.6-1.6,1.6h-2.8c-0.9,0-1.6-0.7-1.6-1.6l0,0
	C587,426,587.7,425.3,588.5,425.3z"/>
<path class="st4" d="M555.7,425h17.7c0.9,0,1.6,0.7,1.6,1.6l0,0c0,0.9-0.7,1.6-1.6,1.6h-17.7c-0.9,0-1.6-0.7-1.6-1.6l0,0
	C554.1,425.6,554.8,425,555.7,425z"/>
<path class="st4" d="M553.3,453.3h2.8c0.9,0,1.6,0.7,1.6,1.6l0,0c0,0.9-0.7,1.6-1.6,1.6h-2.8c-0.9,0-1.6-0.7-1.6-1.6l0,0
	C551.8,454,552.5,453.3,553.3,453.3z"/>
<path class="st4" d="M562.5,453.3h2.8c0.9,0,1.6,0.7,1.6,1.6l0,0c0,0.9-0.7,1.6-1.6,1.6h-2.8c-0.9,0-1.6-0.7-1.6-1.6l0,0
	C561,454,561.7,453.3,562.5,453.3z"/>
<path class="st4" d="M573,453.6h17.7c0.9,0,1.6,0.7,1.6,1.6l0,0c0,0.9-0.7,1.6-1.6,1.6H573c-0.9,0-1.6-0.7-1.6-1.6l0,0
	C571.4,454.3,572.1,453.6,573,453.6z"/>
<path class="st4" d="M520.8,453.3h2.8c0.9,0,1.6,0.7,1.6,1.6l0,0c0,0.9-0.7,1.6-1.6,1.6h-2.8c-0.9,0-1.6-0.7-1.6-1.6l0,0
	C519.2,454,519.9,453.3,520.8,453.3z"/>
<path class="st4" d="M529.6,453.6h17.7c0.9,0,1.6,0.7,1.6,1.6l0,0c0,0.9-0.7,1.6-1.6,1.6h-17.7c-0.9,0-1.6-0.7-1.6-1.6l0,0
	C528.1,454.3,528.8,453.6,529.6,453.6z"/>
<path class="st4" d="M529.5,446.3h2.8c0.9,0,1.6,0.7,1.6,1.6l0,0c0,0.9-0.7,1.6-1.6,1.6h-2.8c-0.9,0-1.6-0.7-1.6-1.6l0,0
	C527.9,446.9,528.6,446.3,529.5,446.3z"/>
<path class="st4" d="M562,446.3h2.8c0.9,0,1.6,0.7,1.6,1.6l0,0c0,0.9-0.7,1.6-1.6,1.6H562c-0.9,0-1.6-0.7-1.6-1.6l0,0
	C560.4,446.9,561.1,446.3,562,446.3z"/>
<path class="st4" d="M571.2,446.3h2.8c0.9,0,1.6,0.7,1.6,1.6l0,0c0,0.9-0.7,1.6-1.6,1.6h-2.8c-0.9,0-1.6-0.7-1.6-1.6l0,0
	C569.6,446.9,570.3,446.3,571.2,446.3z"/>
<path class="st4" d="M538.3,446.5H556c0.9,0,1.6,0.7,1.6,1.6l0,0c0,0.9-0.7,1.6-1.6,1.6h-17.7c-0.9,0-1.6-0.7-1.6-1.6l0,0
	C536.8,447.1,537.4,446.5,538.3,446.5z"/>
<path class="st4" d="M538.1,439.1h2.8c0.9,0,1.6,0.7,1.6,1.6l0,0c0,0.9-0.7,1.6-1.6,1.6h-2.8c-0.9,0-1.6-0.7-1.6-1.6l0,0
	C536.6,439.9,537.3,439.1,538.1,439.1z"/>
<path class="st4" d="M570.7,439.1h2.8c0.9,0,1.6,0.7,1.6,1.6l0,0c0,0.9-0.7,1.6-1.6,1.6h-2.8c-0.9,0-1.6-0.7-1.6-1.6l0,0
	C569.1,439.9,569.8,439.1,570.7,439.1z"/>
<path class="st4" d="M579.9,439.1h2.8c0.9,0,1.6,0.7,1.6,1.6l0,0c0,0.9-0.7,1.6-1.6,1.6h-2.8c-0.9,0-1.6-0.7-1.6-1.6l0,0
	C578.3,439.9,579,439.1,579.9,439.1z"/>
<path class="st4" d="M547,439.5h17.7c0.9,0,1.6,0.7,1.6,1.6l0,0c0,0.9-0.7,1.6-1.6,1.6H547c-0.9,0-1.6-0.7-1.6-1.6l0,0
	C545.4,440.1,546.1,439.5,547,439.5z"/>
<path class="st4" d="M546.8,432.1h2.8c0.9,0,1.6,0.7,1.6,1.6l0,0c0,0.9-0.7,1.6-1.6,1.6h-2.8c-0.9,0-1.6-0.7-1.6-1.6l0,0
	C545.2,432.9,545.9,432.1,546.8,432.1z"/>
<path class="st4" d="M579.3,432.1h2.8c0.9,0,1.6,0.7,1.6,1.6l0,0c0,0.9-0.7,1.6-1.6,1.6h-2.8c-0.9,0-1.6-0.7-1.6-1.6l0,0
	C577.8,432.9,578.5,432.1,579.3,432.1z"/>
<path class="st4" d="M588.5,432.1h2.8c0.9,0,1.6,0.7,1.6,1.6l0,0c0,0.9-0.7,1.6-1.6,1.6h-2.8c-0.9,0-1.6-0.7-1.6-1.6l0,0
	C587,432.9,587.7,432.1,588.5,432.1z"/>
<path class="st4" d="M555.7,432.4h17.7c0.9,0,1.6,0.7,1.6,1.6l0,0c0,0.9-0.7,1.6-1.6,1.6h-17.7c-0.9,0-1.6-0.7-1.6-1.6l0,0
	C554.1,433.1,554.8,432.4,555.7,432.4z"/>
<path class="st5" d="M508.5,535.8l-13.3-21.1l41.9-33.4l17.3-19.2c7.1-7.9,19.2-8.5,27.1-1.4c2.5,2.2,4.3,5.1,5.4,8.2l0,0
	c3.2,9.8-1.9,20.4-11.6,24L548,503.1L508.5,535.8z"/>
<path class="st3" d="M195.3,382.9v102.5h71.9V382.9c0-1.5-1-2.9-2.4-3.3c-0.3-0.1-0.7-0.2-1-0.2h-64.9
	C196.8,379.4,195.3,381,195.3,382.9L195.3,382.9z M223.3,418.1c0-4.2,3.5-7.6,7.7-7.6s7.6,3.4,7.6,7.6V430c0,4.2-3.5,7.7-7.7,7.6
	c-4.2,0-7.6-3.4-7.6-7.6V418.1z"/>
<path class="st1" d="M195.1,482.1v9.9c0,1.1,0.9,1.9,1.9,1.9h68.4c1.1,0,1.9-0.9,1.9-1.9v-9.9H195.1z"/>
<path class="st1" d="M82.3,228.4v187.3c0,5,4,9,9,9h277.5c5,0,9-4,9-9V228.4c0-5-4-9-9-9H91.3C86.3,219.4,82.3,223.4,82.3,228.4z"/>
<path class="st4" d="M88.8,230.7v182.6c0,2.7,2.2,4.8,4.8,4.8h272.9c2.7,0,4.8-2.2,4.8-4.8V230.7c0-2.7-2.2-4.8-4.8-4.8H93.6
	C90.9,225.9,88.8,228,88.8,230.7z"/>
<path class="st3" d="M139.4,493.3c0.6,0.7,1.4,1.1,2.3,1.1H304c1.6,0,3-1.3,3-3c0-0.2,0-0.4-0.1-0.6l-2.5-12c-0.2-1-0.9-1.8-1.9-2.2
	c-0.3-0.1-0.7-0.2-1.1-0.2H144.2c-0.4,0-0.7,0.1-1.1,0.2c-0.9,0.4-1.6,1.2-1.9,2.2l-2.5,12C138.6,491.6,138.8,492.6,139.4,493.3z"/>
<path class="st1" d="M357.6,251H102.3c-0.6,0-1-0.5-1-1s0.4-1,1-1h255.3c0.6,0,1,0.5,1,1C358.6,250.6,358.1,251,357.6,251z"/>
<ellipse class="st1" cx="119.7" cy="237.7" rx="6" ry="6.1"/>
<ellipse class="st1" cx="140.2" cy="237.7" rx="6" ry="6.1"/>
<ellipse class="st1" cx="160.8" cy="237.7" rx="6" ry="6.1"/>
<path class="st1" d="M345.2,233.2h-14.6c-0.6,0-1.1,0.5-1.1,1.1s0.5,1.1,1.1,1.1h14.6c0.6,0,1.1-0.5,1.1-1.1
	C346.3,233.6,345.8,233.2,345.2,233.2z"/>
<path class="st1" d="M345.2,237.3h-14.6c-0.6,0-1.1,0.5-1.1,1.1s0.5,1.1,1.1,1.1h14.6c0.6,0,1.1-0.5,1.1-1.1
	S345.8,237.3,345.2,237.3z"/>
<path class="st1" d="M345.2,241.5h-14.6c-0.6,0-1.1,0.5-1.1,1.1s0.5,1.1,1.1,1.1h14.6c0.6,0,1.1-0.5,1.1-1.1
	C346.3,241.9,345.8,241.5,345.2,241.5z"/>
<path class="st3" d="M697.2,486.5c0.9,2.6,3.4,4.4,6.2,4.3l26.5-0.7c2.8-0.1,5.2-2,6-4.7l3.7-40c1.3,0.6,2.8,0.9,4.2,0.9
	c5.3-0.1,9.5-4.6,9.4-9.9s-4.6-9.5-9.9-9.4c-0.6,0-1.2,0.1-1.7,0.2c-1.3-1.4-3-2.1-4.9-2.1l-40.8,1.1c-0.3,0-0.7,0.1-1,0.1
	c-3.5,0.6-5.7,4-5.1,7.4c0.1,0.3,0.1,0.6,0.2,0.8L697.2,486.5z M740.4,442.6l2.7-9.6c0.3-1.1,0.3-2.3,0-3.4c0.1,0,0.2-0.1,0.4-0.1
	c3.8-0.1,7,3,7.1,6.8s-2.9,7-6.7,7.1C742.6,443.5,741.4,443.3,740.4,442.6z"/>
<path class="st1" d="M695,426.1c0.9,5,10.6,8.5,22.4,7.8c10.8-0.5,19.6-4.3,21.2-8.8c-0.6-0.2-1.2-0.3-1.8-0.2L696,426
	C695.7,426.1,695.3,426.1,695,426.1z"/>
<linearGradient id="SVGID_2_" gradientUnits="userSpaceOnUse" x1="718.6552" y1="204.6045" x2="725.636" y2="204.6045" gradientTransform="matrix(1 0 0 -1 0 664.7)">
	<stop  offset="0" style="stop-color:#FAED7C"/>
	<stop  offset="1" style="stop-color:#F1B31D"/>
</linearGradient>
<path class="st6" d="M719.5,464.5c0.1,0,0.1,0,0.2-0.1l5.8-3.8c0.2-0.2,0.3-0.5,0.1-0.7c0-0.1-0.1-0.1-0.1-0.1l-6-3.9
	c-0.2-0.2-0.5-0.1-0.7,0.1c-0.2,0.2-0.1,0.5,0.1,0.7l5.3,3.5l-5.1,3.3c-0.2,0.2-0.3,0.5-0.1,0.7
	C719.1,464.4,719.3,464.5,719.5,464.5L719.5,464.5z"/>
<linearGradient id="SVGID_3_" gradientUnits="userSpaceOnUse" x1="703.8295" y1="204.1545" x2="710.7949" y2="204.1545" gradientTransform="matrix(1 0 0 -1 0 664.7)">
	<stop  offset="0" style="stop-color:#FAED7C"/>
	<stop  offset="1" style="stop-color:#F1B31D"/>
</linearGradient>
<path class="st7" d="M710.4,464.9c0.3-0.1,0.4-0.3,0.4-0.6c0-0.1-0.1-0.2-0.2-0.3l-5.3-3l5.1-3.8c0.2-0.2,0.3-0.5,0.1-0.7
	c-0.2-0.2-0.5-0.3-0.7-0.1l-5.7,4.3c-0.2,0.2-0.3,0.5-0.1,0.7c0,0.1,0.1,0.1,0.2,0.1l6,3.4C710.2,464.9,710.3,464.9,710.4,464.9z"/>
<linearGradient id="SVGID_4_" gradientUnits="userSpaceOnUse" x1="710.1537" y1="204.1696" x2="719.3098" y2="204.1696" gradientTransform="matrix(1 0 0 -1 0 664.7)">
	<stop  offset="0" style="stop-color:#FAED7C"/>
	<stop  offset="1" style="stop-color:#F1B31D"/>
</linearGradient>
<path class="st8" d="M718.9,467.8c0,0,0.1,0,0.1-0.1c0.2-0.1,0.3-0.5,0.2-0.7l0,0l-8.2-13.4c-0.1-0.2-0.5-0.3-0.7-0.2
	c-0.2,0.1-0.3,0.5-0.2,0.7l8.2,13.4C718.5,467.6,718.7,467.8,718.9,467.8z"/>
<linearGradient id="SVGID_5_" gradientUnits="userSpaceOnUse" x1="212.9845" y1="353.1" x2="263.7037" y2="353.1" gradientTransform="matrix(1 0 0 -1 0 664.7)">
	<stop  offset="0" style="stop-color:#FAED7C"/>
	<stop  offset="1" style="stop-color:#F1B31D"/>
</linearGradient>
<path class="st9" d="M216.2,306.1h44.2c1.8,0,3.3,1.5,3.3,3.3v4.3c0,1.8-1.5,3.3-3.3,3.3h-44.2c-1.8,0-3.3-1.5-3.3-3.3v-4.3
	C213,307.6,214.4,306.1,216.2,306.1z"/>
<path class="st10" d="M190.5,327.9h95.7c1.8,0,3.3,1.5,3.3,3.3v4.3c0,1.8-1.5,3.3-3.3,3.3h-95.7c-1.8,0-3.3-1.5-3.3-3.3v-4.3
	C187.2,329.4,188.7,327.9,190.5,327.9z"/>
<path class="st10" d="M190.5,349.6h95.7c1.8,0,3.3,1.5,3.3,3.3v4.3c0,1.8-1.5,3.3-3.3,3.3h-95.7c-1.8,0-3.3-1.5-3.3-3.3v-4.3
	C187.2,351.1,188.7,349.6,190.5,349.6z"/>
<path class="st1" d="M294.3,422.1l0.2,0.7l0,0l6.5,19.8l7.5,22.9l14.1,43l0.1,6.7l0,0l1,53.7l-2.9,7.3l3.3,11.9c0,0-1.5-18-9.6-7.7
	c-4.6,5.9-9.9,11.9-14.3,17.6c6.4,2.6,12.9,4.9,19.5,7c1.4,0.5,2.9,0.9,4.3,1.3c0.3,0.1,0.6,0.2,0.9,0.3
	c21.9,6.5,44.5,10.1,67.4,10.8c1.2,0,2.3,0.1,3.5,0.1c0.4,0,0.8,0,1.2,0c1.3,0,2.5,0,3.8,0c2.6,0,5.1,0,7.7-0.1
	c18.9-0.5,37.7-3.1,56.1-7.6c-0.1-7.6-0.5-16.4-1-25.9c-0.2-4.6-5.4-9.7-5.7-14.5c-0.2-3.7,4.4-7.1,4.1-10.8
	c-1.6-22.8-3.5-14.1-4.9-30.2c-0.1-1.6-0.3-3.1-0.4-4.6c-0.9-10.4-1.6-16.9-1.6-16.9l6.1-38.7l9.6-60.7l-0.7-1.2l-0.8-0.4
	l-50.8-25.2l-2.8-7.1c-1.6-4.2-5.7-6.9-10.1-6.9l-33.5-0.1c-3.5,0-6.8,1.7-8.9,4.5l-9.1,12.6L294.3,422.1z"/>
<path class="st1" d="M330.4,499.1l-7.6,16.2l-5.2,11.1l-8.9,46.6l-4.5,4.7l-3.8-16.8l-40,8.9c-1.3-7.3-0.4,0.2-1.2-7.8
	c0.2-0.2,0.5-0.5,0.7-0.7c0.6-0.6,1.2-1.2,1.2-1.7c-0.5-27.6,0.9-74.5,12.3-103c1.8-4.6,4.2-9,7-13.1c0.2-0.3,0.4-0.6,0.7-0.9
	c5.3-7.4,8.6-14.6,13.3-19.8l0,0l0.1-0.1l0,0l32.4-17.2l1.4,39.1l1,28.1L330.4,499.1z"/>
<path class="st1" d="M447.4,503.6l9.5,20.3l3.3,7.1l8.9,46.6l4.4,4.7l3.8-16.8l1.8-0.4l32.5-6.7l9.5,30c4.4-7.3,3-16.7-3.3-22.5
	c-0.6-0.6-1.2-1.2-1.2-1.7c0.5-32.4-1.4-91.7-19.4-116.1c-5.7-7.7-9.1-15.4-14.1-20.8l0,0L471,407.5l-0.7-1.2l-0.8-0.4L447.4,503.6z
	"/>
<circle id="a657ec4b-47ce-4d2a-9c58-81a811696ca9" class="st5" cx="390" cy="312.6" r="44.6"/>
<path class="st3" d="M450.2,281.5c-0.7-0.7-1.7-1.2-2.7-1.2l0.7-1.9c0.7-1.8-0.2-3.9-2.1-4.5c-0.6-0.2-1.3-0.3-1.9-0.2l-2.4,0.5
	l0.2-1.6c0.3-1.9-1.1-3.7-3-4c-0.6-0.1-1.2,0-1.7,0.2c-1.1,0.4-2.3,0.3-3.2-0.2c-1-0.5-1.7-1.5-1.9-2.6l-0.8-4.1l-0.1-0.2
	c-4.1-6.9-12.1-11.9-21.8-13.8c-8.7-1.6-17.6-0.8-26.1,0c-3.4,0.3-7.2,0.7-10.4,2.6c-2.7,1.7-5,5-4.5,8.4c-8.5-2.6-17.5,2.6-22,9.1
	c-5.3,7.8-6.2,17.5-6.3,25.1c-0.4,18,3.3,32.7,11,43.7c0.6,0.8,0.7,2.5,1.8,3l-0.2-0.4c1.2,0.6,2.5,1.6,2,2.7
	c-1.3,3.1,7.6,9.9,13.9,12.1c11.5,4.1,26.9,3.8,37.6,2.3l0.4-2.5c3.9-0.5,6.6-1.5,7.4-3.1c1.4-1.2,2.5-2.2,3.5-3.2l0,0
	c0,0,0.1,0,0.1-0.1c4.9-4.7,6-7.3,6.5-11.4c0.5-4-0.4-8-1.3-11.6c18.7,2.9-7.4-20,10.1-24.4c0.2-0.1,0.4-0.1,0.6-0.1
	c0.5-0.1,1-0.2,1.5-0.4c2.4-0.6,4.6-1.6,6.7-2.9c4.9-3,6.5-6.9,9-11.4C451.4,284.2,451.2,282.5,450.2,281.5z"/>
<path class="st3" d="M547.6,506.8c0,1.8,0,4.2-0.1,7.2c0,0.4,0,0.8,0,1.3c-0.1,5.6-0.3,10.2-0.5,15.4c0,0.4,0,0.7,0,1.1
	c-0.3,7.2-0.7,15.7-1.5,29c-1.4,24.7-3.9,3.4-6.3,12c-0.1,0.4-0.3,0.9-0.4,1.5c-0.4,2.2-1,4.3-1.9,6.3c-1.3,0.8-2.7,1.5-4,2.3
	c-3.8,2.1-7.6,4.1-11.5,6.1c-2.2,1.1-4.4,2.1-6.6,3.2c-0.3,0.2-0.7,0.3-1,0.5c-11.3,5.2-22.9,9.6-34.8,13.3c-2.3,0.7-4.6,1.4-7,2
	c-2.4,0.7-4.9,1.3-7.3,1.9c-18.4,4.5-37.2,7.1-56.1,7.6c-2.5,0.1-5.1,0.1-7.7,0.1c-1.3,0-2.5,0-3.8,0c-0.4,0-0.8,0-1.2,0
	c-1.1,0-2.3,0-3.5-0.1c-22.8-0.7-45.5-4.4-67.3-10.8l-0.9-0.3c-1.4-0.4-2.9-0.9-4.3-1.3c-6.6-2.1-13.1-4.4-19.5-7
	c-4.9-2-9.7-4.1-14.5-6.3c0,0-0.1,0-0.1-0.1c-1-0.5-2-0.9-3-1.4c-0.1-0.1-0.3-0.1-0.4-0.2c-3.7-1.8-7.4-3.7-11.1-5.7
	c-3.1-7.1-7.4-8.4-10.1-14.6c-0.8-1.8-1.3-3.8-1.7-5.7c0,0,0,0,0-0.1c0.3,3.7-1.2-6.6,0,0c0-0.1,0-0.3,0-0.4c0-0.4-0.1-0.8-0.1-1.3
	c-3.4-33.5-3.2-71.8-4.7-103.4c-0.1-2-0.2-4-0.3-5.9c0-0.6-0.1-1.2-0.1-1.8c0.1-0.2,0.1-0.4,0.2-0.5c0-0.1,0-0.1,0.1-0.2
	c0-0.1,0.1-0.1,0.1-0.2c0,0,0-0.1,0.1-0.1v-0.1c0.1-0.1,0.2-0.3,0.3-0.4c0-0.1,0.1-0.1,0.1-0.2s0.1-0.1,0.1-0.1l0.1-0.1l0.1-0.1
	c0,0,0-0.1,0.1-0.1c0.1-0.1,0.2-0.2,0.3-0.3c0.4-0.3,0.7-0.6,1.1-0.9c0.1-0.1,0.3-0.2,0.4-0.3c1-0.6,2.1-1.1,3.2-1.5
	c0.4-0.1,0.8-0.3,1.2-0.4c0.1,0,0.3-0.1,0.4-0.1c0.2-0.1,0.4-0.1,0.7-0.2c1.1-0.3,2.4-0.6,3.7-0.9c0.2,0,0.3-0.1,0.5-0.1
	s0.5-0.1,0.7-0.1c0.3-0.1,0.7-0.1,1-0.2c3-0.5,6.3-0.8,10.1-1c0.4,0,0.7,0,1-0.1c0.4,0,0.8,0,1.2-0.1c0.4,0,0.7,0,1.1,0s0.7,0,1.1,0
	c1,0,2-0.1,3.1-0.1c3-0.1,6.2,0,9.5,0c1.5,0,3.1,0.1,4.8,0.2c0.1,0,0.2,0,0.3,0c1.4,0,2.8,0.1,4.3,0.2c1,0,2,0.1,3.1,0.2
	c1,0.1,1.9,0.1,2.9,0.2c0.8,0,1.5,0.1,2.3,0.2c0.7,0,1.3,0.1,2,0.1l0.9,0.1c0.5,0,1,0.1,1.5,0.1c1.1,0.1,2.2,0.2,3.3,0.3
	c1.1,0.1,2.2,0.2,3.4,0.3s2.3,0.2,3.4,0.3c0.1,0,0.2,0,0.3,0c1,0.1,2.1,0.2,3.1,0.3c0.2,0,0.5,0,0.7,0.1c1,0.1,2,0.2,3,0.3
	c0.3,0,0.6,0.1,0.9,0.1c0.8,0.1,1.6,0.2,2.4,0.3c1,0.1,2.1,0.2,3.2,0.4c0.8,0.1,1.6,0.2,2.4,0.3c1.3,0.2,2.6,0.3,3.8,0.5
	c0.5,0.1,1,0.1,1.5,0.2c3.7,0.5,7.4,1,11.2,1.5c5.7,0.8,11.5,1.7,17.4,2.6c5.9,1,11.8,2,17.7,3c1.5,0.3,3,0.5,4.5,0.8
	c0.7,0.1,1.4,0.3,2,0.4c1.2,0.2,2.3,0.4,3.5,0.7c1.2,0.2,2.3,0.4,3.5,0.7c1.4,0.3,2.8,0.5,4.2,0.8c9.1,1.8,18.1,3.7,27,5.7
	c1.5,0.3,2.9,0.7,4.3,1c2.9,0.7,5.7,1.3,8.6,2c0.8,0.2,1.5,0.4,2.3,0.6c1.9,0.5,3.8,1,5.7,1.5l0.3,0.1c1.4,0.3,2.8,0.7,4.1,1
	c3.2,0.8,6.4,1.7,9.5,2.5c2.1,0.6,4.1,1.1,6.1,1.7c3,0.9,6,1.8,8.8,2.6c0.7,0.2,1.4,0.4,2.1,0.7c2.1,0.7,4.2,1.3,6.2,2
	c1.6,0.5,3.2,1,4.7,1.6c1.5,0.5,3,1.1,4.5,1.6c1,0.3,1.9,0.7,2.8,1c1.3,0.5,2.7,1,4,1.5c0.4,0.2,0.8,0.3,1.2,0.5
	c0.3,0.1,0.5,0.2,0.7,0.3c0.5,0.2,1,0.4,1.4,0.6c0.5,0.2,0.9,0.4,1.4,0.6s0.9,0.4,1.3,0.6c0.5,0.2,0.9,0.4,1.3,0.6
	c0.4,0.2,0.7,0.3,1.1,0.5c0.7,0.3,1.4,0.6,2.1,0.9c0.3,0.2,0.7,0.3,1,0.5l0.8,0.4c0.1,0.1,0.2,0.1,0.3,0.2c0.3,0.1,0.5,0.3,0.8,0.4
	c0.6,0.3,1.2,0.6,1.7,0.8c0.8,0.4,1.5,0.8,2.2,1.1c0.7,0.4,1.4,0.8,2.1,1.1c0.1,0.1,0.2,0.1,0.3,0.2c0.2,0.1,0.3,0.2,0.5,0.3
	c0.5,0.3,1,0.6,1.5,0.9c1,0.6,1.9,1.2,2.7,1.8c0.2,0.1,0.4,0.3,0.6,0.4c0.6,0.5,1.2,0.9,1.8,1.3l0,0c0.2,0.1,0.4,0.3,0.5,0.4
	c0.2,0.1,0.3,0.3,0.5,0.4c0.5,0.5,1,0.9,1.4,1.3c0.1,0.1,0.3,0.3,0.4,0.4c0.1,0,0.1,0.1,0.2,0.2c0.2,0.2,0.4,0.4,0.5,0.6
	c0,0,0,0.1,0.1,0.1c0.2,0.3,0.5,0.6,0.7,0.8c0.1,0.1,0.2,0.3,0.3,0.4c0.1,0.2,0.2,0.3,0.3,0.5c0.1,0.1,0.2,0.3,0.3,0.4
	c0.2,0.4,0.4,0.7,0.5,1.1c0.1,0.3,0.2,0.5,0.3,0.8C547.5,506.3,547.6,506.6,547.6,506.8z"/>
<path class="st11" d="M547.6,506.8c0,1.8,0,4.2-0.1,7.2c0,0.4,0,0.8,0,1.3c-0.1,4.3-0.3,9.5-0.5,15.4c0,0.4,0,0.7,0,1.1
	c-0.3,7.2-0.7,15.7-1.5,29c-1.4,24.7-3.9,3.4-6.3,12c-6.9-4.2-14.4-8.6-22.4-13.2c-1.4-0.8-2.9-1.6-4.4-2.5
	c-16.1-9-34-18.4-52.8-27.7c-0.7-0.4-1.5-0.7-2.2-1.1c-43-21.2-89.8-41.9-127.8-55.7c-7.3-2.7-14.3-5.1-20.9-7.2
	c-13.9-4.4-25.8-7.5-35.1-8.9c-9.6-1.4-16.2-0.9-18.9,2c-0.1-2-0.2-4-0.3-5.9c0-0.6-0.1-1.2-0.1-1.8c0.1-0.2,0.1-0.3,0.2-0.5
	c0,0,0,0,0-0.1s0-0.1,0.1-0.2c0-0.1,0.1-0.1,0.1-0.2s0.1-0.1,0.1-0.2c0.1-0.1,0.2-0.3,0.3-0.4s0.2-0.2,0.3-0.3l0.1-0.1l0.1-0.1
	c0,0,0-0.1,0.1-0.1c0.1-0.1,0.2-0.2,0.3-0.3c0.4-0.3,0.7-0.6,1.1-0.9c0.1-0.1,0.3-0.2,0.4-0.3c1-0.6,2.1-1.1,3.2-1.5
	c0.4-0.1,0.8-0.3,1.2-0.4c0.1,0,0.3-0.1,0.4-0.1c0.2-0.1,0.4-0.1,0.7-0.2c1.1-0.3,2.4-0.6,3.7-0.9c0.4-0.1,0.8-0.2,1.2-0.2
	c0.3-0.1,0.7-0.1,1-0.2c3-0.5,6.3-0.8,10.1-1c0.4,0,0.7,0,1-0.1c0.4,0,0.8,0,1.2-0.1c0.4,0,0.7,0,1.1,0s0.7,0,1.1,0
	c1,0,2-0.1,3.1-0.1c3,0,6.2,0,9.5,0c1.5,0,3.1,0.1,4.8,0.2c0.1,0,0.2,0,0.3,0c1.4,0,2.8,0.1,4.3,0.2c1,0,2,0.1,3.1,0.2
	c1,0.1,1.9,0.1,2.9,0.2c0.8,0,1.5,0.1,2.3,0.2c0.7,0,1.3,0.1,2,0.1c0.8,0.1,1.6,0.1,2.4,0.2c1.1,0.1,2.2,0.2,3.3,0.3
	c1.1,0.1,2.2,0.2,3.4,0.3s2.3,0.2,3.4,0.3c0.1,0,0.2,0,0.3,0c1,0.1,2.1,0.2,3.1,0.3c5.8,0.6,11.8,1.3,18,2.1c3.7,0.5,7.4,1,11.2,1.5
	c5.7,0.8,11.5,1.7,17.4,2.6c5.9,1,11.8,2,17.7,3c1.5,0.3,3,0.5,4.5,0.8c1.8,0.3,3.7,0.7,5.5,1c1.2,0.2,2.3,0.4,3.5,0.7
	c1.4,0.3,2.8,0.5,4.2,0.8c9.1,1.8,18.1,3.7,27,5.7c1.5,0.3,2.9,0.7,4.3,1c2.9,0.7,5.7,1.3,8.6,2c0.8,0.2,1.5,0.4,2.3,0.6
	c1.9,0.5,3.8,1,5.7,1.4l0,0c0.1,0,0.2,0,0.3,0.1c1.4,0.3,2.8,0.7,4.1,1.1c3.2,0.8,6.4,1.7,9.5,2.5c2.1,0.6,4.1,1.2,6.1,1.7
	c3,0.9,6,1.8,8.8,2.6c0.7,0.2,1.4,0.4,2.1,0.7c2.1,0.7,4.2,1.3,6.2,2c1.6,0.5,3.2,1,4.7,1.6c1.5,0.5,3,1.1,4.5,1.6
	c1,0.3,1.9,0.7,2.8,1c1.4,0.5,2.7,1,4,1.5c0.4,0.2,0.8,0.3,1.2,0.5c0.7,0.3,1.4,0.6,2.1,0.9c0.5,0.2,0.9,0.4,1.4,0.6
	s0.9,0.4,1.3,0.6c0.5,0.2,0.9,0.4,1.3,0.6c0.4,0.2,0.7,0.3,1.1,0.5c0.7,0.3,1.4,0.6,2.1,0.9c0.3,0.2,0.7,0.3,1,0.5l0.8,0.4
	c0.1,0.1,0.2,0.1,0.3,0.2c0.8,0.4,1.7,0.8,2.5,1.2c0.8,0.4,1.5,0.8,2.2,1.1c0.8,0.4,1.6,0.9,2.4,1.3c0.2,0.1,0.3,0.2,0.5,0.3
	c0.5,0.3,1,0.6,1.5,0.9c1,0.6,1.9,1.2,2.7,1.8c0.8,0.6,1.6,1.2,2.3,1.7l0,0c0.3,0.3,0.7,0.6,1,0.8c0.5,0.5,1,0.9,1.4,1.3
	c0.1,0.1,0.3,0.3,0.4,0.4c0.1,0,0.1,0.1,0.2,0.2c0.2,0.2,0.4,0.5,0.6,0.7c0.2,0.3,0.5,0.6,0.7,0.8c0.1,0.1,0.2,0.3,0.3,0.4
	c0.1,0.2,0.2,0.3,0.3,0.5c0.1,0.1,0.2,0.3,0.3,0.4c0.2,0.4,0.4,0.7,0.5,1.1c0.1,0.3,0.2,0.5,0.3,0.8
	C547.5,506.3,547.6,506.6,547.6,506.8z"/>
</svg>
