<?xml version="1.0" encoding="utf-8"?>
<!-- Generator: Adobe Illustrator 24.1.1, SVG Export Plug-In . SVG Version: 6.00 Build 0)  -->
<svg version="1.1" id="Layer_1" xmlns="http://www.w3.org/2000/svg" xmlns:xlink="http://www.w3.org/1999/xlink" x="0px" y="0px"
	 viewBox="0 0 700 700" style="enable-background:new 0 0 700 700;" xml:space="preserve">
<style type="text/css">
	.st0{fill:#1F4297;}
</style>
<g>
	<path class="st0" d="M40.7,84.1C18.4,84.1,0,102.3,0,124.8v455.7c0,22.4,18.2,40.7,40.7,40.7h618.5c22.4,0,40.7-18.2,40.7-40.7
		V124.8c0-22.4-18.2-40.7-40.7-40.7H40.7z M40.7,100.3h618.5c13.6,0,24.3,10.7,24.3,24.3v73.2H87.8c-0.4,0-0.6,0-1,0
		c-4.5,0.2-7.9,4.2-7.7,8.7c0.2,4.5,4.2,7.9,8.7,7.7h596v366.3c0,13.6-10.7,24.3-24.3,24.3H40.7c-13.6,0-24.3-10.7-24.3-24.3V124.8
		C16.4,111.2,27.1,100.3,40.7,100.3L40.7,100.3z M495.7,124.8c-13.5,0-24.3,11.1-24.3,24.3c0,13.5,11.1,24.3,24.3,24.3
		c13.5,0,24.3-11.1,24.3-24.3C520,135.9,508.9,124.8,495.7,124.8z M561.1,124.8c-13.5,0-24.3,11.1-24.3,24.3
		c0,13.5,11.1,24.3,24.3,24.3c13.5,0,24.3-11.1,24.3-24.3C585.7,135.9,574.6,124.8,561.1,124.8L561.1,124.8z M626.8,124.8
		c-13.5,0-24.3,11.1-24.3,24.3c0,13.5,11.1,24.3,24.3,24.3c13.5,0,24.3-11.1,24.3-24.3C651.3,135.9,640.3,124.8,626.8,124.8z
		 M495.7,141c4.5,0,8.1,3.6,8.1,8.1c0,4.5-3.6,8.1-8.1,8.1c-4.5,0-8.1-3.6-8.1-8.1C487.4,144.6,490.9,141,495.7,141z M561.1,141
		c4.5,0,8.1,3.6,8.1,8.1c0,4.5-3.6,8.1-8.1,8.1c-4.5,0-8.1-3.6-8.1-8.1S556.6,141,561.1,141z M626.8,141c4.5,0,8.1,3.6,8.1,8.1
		c0,4.5-3.6,8.1-8.1,8.1c-4.5,0-8.1-3.6-8.1-8.1S622.3,141,626.8,141z M316.1,263.1c-4,0.8-6.7,4.2-6.5,8.1v23.9
		c-4,1.4-7.7,2.8-11.5,4.5l-16.8-16.8c-1.6-1.6-3.6-2.6-5.9-2.6c-2.2,0-4.4,1-5.9,2.6L223.3,329c-3.2,3.2-3.2,8.3,0,11.5l17,17
		c-1.8,3.8-3.4,7.5-4.7,11.5h-23.9c-4.5,0-8.1,3.6-8.1,8.1v65.1c0,4.5,3.6,8.1,8.1,8.1h23.9c1.4,4,2.8,7.7,4.5,11.5l-16.8,16.8
		c-3.2,3.2-3.2,8.3,0,11.5l46.1,46.1c1.6,1.6,3.6,2.6,5.9,2.6c2.2,0,4.4-1,5.9-2.6l16.8-16.8c3.8,1.8,7.5,3.4,11.5,4.7v23.9
		c0,4.5,3.6,8.1,8.1,8.1h65.1c4.5,0,8.1-3.6,8.1-8.1V524c4-1.4,7.7-3,11.5-4.7c1.8,1.8,4.2,4.2,6.5,6.5c5.1,5.1,10.1,10.1,10.1,10.1
		c1.6,1.6,3.6,2.6,5.9,2.6c2.2,0,4.4-1,5.9-2.6l46.1-46.1c3.2-3.2,3.2-8.3,0-11.5c0,0-5.3-4.9-10.5-10.1c-2.4-2.4-4.7-4.7-6.5-6.5
		c1.8-3.8,3.4-7.5,4.7-11.5h23.9c4.5,0,8.1-3.6,8.1-8.1V377c0-4.5-3.6-8.1-8.1-8.1h-23.9c-1.4-4-3.2-7.7-4.7-11.5
		c1.8-1.8,4.2-4.2,6.5-6.5c5.1-5.1,10.5-10.5,10.5-10.5c3.2-3.2,3.2-8.3,0-11.5l-46.1-46.1c-1.6-1.6-3.6-2.6-5.9-2.6
		c-2.2,0-4.4,1-5.9,2.6c0,0-4.9,5.3-10.1,10.5c-2.4,2.4-4.7,4.7-6.5,6.5c-3.8-1.8-7.5-3.4-11.5-4.7v-23.9c0-4.5-3.6-8.1-8.1-8.1
		h-65.3C317.1,263.1,316.5,263.1,316.1,263.1L316.1,263.1z M325.8,279.5h48.9v21.2c0,3.6,2.4,6.7,5.9,7.7c6.9,2.2,13.8,4.9,20.2,8.3
		h7.9l0.8-0.8c0,0,0.4-0.2,0.6-0.2c0.2-0.2,0.2-0.2,0.2-0.2c0.2-0.2,0.2-0.2,0.2-0.2c0.2-0.2,0.4-0.4,0.8-0.8
		c0.6-0.6,1.4-1.4,2.4-2.4c2-2,4.5-4.5,7.1-7.1c2.2-2.2,2.8-2.8,4.5-4.5l34.6,34.6c-1.8,1.8-2.4,2.4-4.5,4.5
		c-2.6,2.6-5.1,4.9-7.1,6.9c-1,1-1.8,2-2.4,2.6c-0.2,0.2-0.6,0.6-0.8,0.8l-0.2,0.2c0,0-0.2,0-0.2,0.2c0,0-0.2,0.2-0.6,0.6
		c-0.2,0.2-0.6,0.8-0.6,0.8l-0.2,7.7l0.2,0.2c3.4,6.3,6.1,13.1,8.1,20.2c1,3.6,4.2,5.9,7.9,5.9h21.2v48.9h-21.2
		c-3.6,0-6.9,2.4-7.9,5.9c-2.2,6.9-4.7,13.8-8.1,20.2v7.7l0.6,1c0,0,0.4,0.4,0.6,0.6c0.2,0.2,0.2,0.2,0.2,0.2
		c0.2,0.2,0.2,0.2,0.2,0.2c0.2,0.2,0.4,0.4,0.8,0.8c0.6,0.6,1.4,1.4,2.4,2.4c2,2,4.5,4.5,7.1,7.1c2.4,2.4,2.8,2.8,4.5,4.5
		l-34.6,34.4c-1.8-1.8-2.4-2.2-4.5-4.4c-2.6-2.6-5.1-5.1-7.1-7.1c-1-1-1.8-2-2.4-2.6c-0.2-0.2-0.6-0.4-0.8-0.6l-0.2-0.2
		c0,0,0-0.2-0.2-0.2c0,0-0.2-0.2-0.6-0.6c-0.2-0.2-0.8-0.6-0.8-0.6l-7.7-0.2l-0.2,0.2c-6.3,3.4-13.1,6.1-20.2,8.1
		c-3.6,1-5.9,4.2-5.9,7.9v21.2h-48.9v-21.2c0-3.6-2.4-6.9-5.9-7.9c-6.9-2.2-13.8-4.7-20.2-8.1c-3.2-1.8-7.1-1.2-9.7,1.2l-14.8,14.8
		L240.5,485l15-15c2.4-2.6,3-6.3,1.2-9.5c-3.4-6.3-6.1-13.1-8.1-20.2c-1-3.6-4.2-5.9-7.9-5.9h-21.2v-49.1h21.2
		c3.6,0,6.9-2.4,7.9-5.9c2.2-6.9,4.7-13.8,8.1-20.2c1.8-3.2,1.2-7.1-1.2-9.7l-15-14.8l34.6-34.6l14.8,14.8c2.6,2.6,6.5,3.2,9.7,1.6
		c6.3-3.4,13.1-6.3,20.2-8.3c3.4-1,5.7-4.2,5.9-7.7V279.5z M350.1,344.6c-35.8,0-65.1,29.3-65.1,65.1s29.3,65.1,65.1,65.1
		s65.1-29.3,65.1-65.1S385.9,344.6,350.1,344.6z M350.1,360.8c27.1,0,48.9,21.8,48.9,48.9c0,27.1-21.8,48.9-48.9,48.9
		s-48.9-21.8-48.9-48.9C301.2,382.6,323,360.8,350.1,360.8z"/>
</g>
</svg>
