<?xml version="1.0" encoding="utf-8"?>
<!-- Generator: Adobe Illustrator 24.1.1, SVG Export Plug-In . SVG Version: 6.00 Build 0)  -->
<svg version="1.1" id="Layer_1" xmlns="http://www.w3.org/2000/svg" xmlns:xlink="http://www.w3.org/1999/xlink" x="0px" y="0px"
	 viewBox="0 0 700 700" style="enable-background:new 0 0 700 700;" xml:space="preserve">
<style type="text/css">
	.st0{fill:#1F4297;}
</style>
<g>
	<path class="st0" d="M37.7,84c-21,0-38.4,17-38.4,38v283.6c0,21,17.4,38.4,38.4,38.4h281.8v170c0,5.5,4.6,9.9,10.1,9.9h360.3
		c5.5,0,10.1-4.6,10.1-9.9v-280c0-5.5-4.6-10.1-10.1-10.1H499.8V122c0-21-17.4-38-38.4-38L37.7,84z M37.7,104H461
		c10.3,0,18.4,7.7,18.4,18V174H19.3V122C19.3,111.7,27.4,104,37.7,104L37.7,104z M64.2,124c-8.3,0-15.1,6.7-15.1,15.1
		c0,8.3,6.7,15.1,15.1,15.1c8.3,0,15.1-6.7,15.1-15.1C79.3,130.8,72.6,124,64.2,124z M114.4,124c-8.3,0-15.1,6.7-15.1,15.1
		c0,8.3,6.7,15.1,15.1,15.1c8.3,0,15.1-6.7,15.1-15.1C129.4,130.8,122.7,124,114.4,124z M164.3,124c-8.3,0-15.1,6.7-15.1,15.1
		c0,8.3,6.7,15.1,15.1,15.1c8.3,0,15.1-6.7,15.1-15.1C179.4,130.8,172.7,124,164.3,124z M19.3,194h460.4v130h-150
		c-0.6,0-1.2,0-1.8,0c-4.8,1-8.1,5.2-8.1,10.1v90h-282c-10.3,0-18.4-8.1-18.4-18.4V194z M339.5,344h340.3v260.2H339.5V344z
		 M539.1,383.8c-4,0.2-7.3,2.8-8.7,6.5l-60,160.1c-1,2.6-1,5.4,0.2,7.7c1,2.4,3.2,4.4,5.5,5.4c2.6,1,5.4,0.8,7.7-0.2
		c2.4-1.2,4.4-3.2,5.4-5.5l60-160.1c1.4-3.2,0.8-6.9-1.2-9.7C545.8,385,542.4,383.6,539.1,383.8L539.1,383.8z M429.3,413.8
		c-3,0.2-5.7,1.6-7.5,4l-40,49.9c-3,3.6-3,8.9,0,12.5l40,49.9c1.6,2,4.2,3.4,6.7,3.8c2.6,0.2,5.4-0.4,7.3-2.2c2-1.6,3.4-4.2,3.8-6.7
		c0.2-2.6-0.4-5.4-2.2-7.3l-35.1-43.8l35.1-43.8c2.6-3,3.2-7.3,1.4-10.9C437,415.7,433.3,413.6,429.3,413.8z M588.6,413.8
		c-3.8,0.2-7.1,2.6-8.5,6.1c-1.4,3.6-0.8,7.5,1.8,10.5l35.1,43.8L581.9,518c-1.6,2-2.4,4.8-2.2,7.3c0.2,2.6,1.6,5,3.8,6.7
		c2,1.6,4.8,2.4,7.3,2.2c2.6-0.2,5-1.6,6.7-3.8l40-49.9c3-3.6,3-8.9,0-12.5l-40-49.9C595.4,415.2,592.2,413.6,588.6,413.8
		L588.6,413.8z"/>
</g>
</svg>
