<?xml version="1.0" encoding="utf-8"?>
<!-- Generator: Adobe Illustrator 24.1.1, SVG Export Plug-In . SVG Version: 6.00 Build 0)  -->
<svg version="1.1" id="Layer_1" xmlns="http://www.w3.org/2000/svg" xmlns:xlink="http://www.w3.org/1999/xlink" x="0px" y="0px"
	 viewBox="0 0 794 663" style="enable-background:new 0 0 794 663;" xml:space="preserve">
<style type="text/css">
	.st0{fill:#F0F0F0;}
	.st1{fill:#FFFFFF;}
	.st2{fill:#E4E4E4;}
	.st3{fill:#CACACA;}
	.st4{fill:url(#SVGID_1_);}
	.st5{fill:url(#SVGID_2_);}
	.st6{fill:url(#SVGID_3_);}
	.st7{fill:url(#SVGID_4_);}
	.st8{fill:url(#SVGID_5_);}
	.st9{fill:url(#SVGID_6_);}
	.st10{fill:url(#SVGID_7_);}
	.st11{fill:url(#SVGID_8_);}
	.st12{fill:url(#SVGID_9_);}
</style>
<path class="st0" d="M54,460.3c-22.9-8.3-42.8-28.3-45.3-52.5C31,422.2,57.6,428.3,83.9,425c10.1-1.3,21.3-3.8,29.9,1.6
	c5.4,3.4,8.7,9.3,10.3,15.5c1.5,6.2,1.5,12.6,1.4,19l0.7,1.4C102.3,467.1,76.9,468.6,54,460.3z"/>
<path class="st1" d="M9.2,407.7c11.7,16.5,28.2,28.8,47.3,35.3c4.1,1.5,8.4,2.3,12.7,2.4c4.2,0,8.4-1.1,12-3.3
	c3.4-1.9,6.7-4.3,10.6-5.4c4-1,8.3-0.3,11.7,2c4.3,2.7,7.4,6.8,10.3,10.9c3.2,4.6,6.4,9.4,11.4,12.1c0.6,0.3,0,1.3-0.6,0.9
	c-8.7-4.8-11.9-15.1-19.3-21.3c-3.4-2.9-7.8-4.8-12.3-3.8c-4,0.8-7.4,3.3-10.8,5.3c-3.5,2.2-7.5,3.4-11.6,3.7
	c-4.3,0.1-8.6-0.6-12.8-1.9c-9.3-2.9-18.1-7.3-26.1-12.9c-9.1-6.4-17.1-14.3-23.5-23.4C7.9,407.6,8.8,407.1,9.2,407.7L9.2,407.7z"/>
<path class="st1" d="M50.3,441.2c-3.2,6.3-10.4,9.4-17.1,7.3c-0.7-0.2-0.4-1.2,0.3-1c6.3,2,13-0.9,15.9-6.8
	C49.7,440.1,50.6,440.6,50.3,441.2L50.3,441.2z"/>
<path class="st1" d="M79.7,443.3c-2.2-6.6-6.7-12.2-12.8-15.6c-0.6-0.3,0-1.3,0.6-0.9c6.3,3.6,11.1,9.4,13.3,16.3
	C80.9,443.7,79.9,444,79.7,443.3L79.7,443.3z"/>
<path class="st1" d="M45.9,414.4c1.6-2,2.1-4.7,1.3-7.2c-0.2-0.6,0.8-0.9,1-0.2c0.9,2.7,0.4,5.7-1.4,7.9c-0.1,0.2-0.5,0.3-0.7,0.2
	C45.9,414.9,45.8,414.6,45.9,414.4L45.9,414.4z"/>
<path class="st0" d="M66.5,348.9c0.1,0.4,0.3,0.8,0.5,1.2c2,5.4,4.5,10.7,7.4,15.8c0.2,0.4,0.4,0.8,0.7,1.2
	c7.1,12.1,16.3,22.8,27.3,31.5c4.4,3.5,9,6.6,13.8,9.3c6.7,3.8,14.2,7.4,19.1,13c0.5,0.6,1,1.2,1.4,1.8l-8.9,38.7
	c-0.1,0.1-0.1,0.2-0.2,0.2l-0.3,1.6c-0.3-0.1-0.5-0.3-0.8-0.4c-0.2-0.1-0.3-0.2-0.5-0.2c-0.1-0.1-0.2-0.1-0.3-0.1c0,0-0.1,0-0.1,0
	c-0.1,0-0.2-0.1-0.3-0.1c-1.5-0.8-3-1.5-4.5-2.3c0,0,0,0,0,0c-11.4-5.8-22-12.9-31.8-21.2c-0.3-0.3-0.6-0.5-0.9-0.8
	c-4.3-3.8-8.2-7.9-11.8-12.4c-2-2.4-3.8-5-5.5-7.6c-4.4-6.8-7.7-14.2-9.8-22c-4.2-15.6-3.3-32.3,4.6-46.1
	C66.1,349.6,66.3,349.3,66.5,348.9z"/>
<path class="st1" d="M67,349.1c-0.6,20.2,5.2,40,16.5,56.7c2.4,3.6,5.3,6.9,8.7,9.6c3.4,2.5,7.4,4.1,11.6,4.6
	c3.9,0.5,8,0.6,11.7,2.1c3.8,1.6,6.8,4.7,8.2,8.6c1.8,4.8,1.8,9.9,1.6,14.9c-0.2,5.6-0.5,11.4,1.8,16.6c0.3,0.6-0.7,1-1,0.4
	c-4-9.1-0.4-19.2-2.6-28.6c-1-4.4-3.3-8.5-7.5-10.5c-3.7-1.7-7.9-1.8-11.8-2.3c-4.1-0.4-8.1-1.8-11.5-4.1c-3.5-2.5-6.6-5.7-9-9.2
	c-5.7-7.9-10.1-16.7-13-26c-3.4-10.6-5-21.7-4.7-32.8C66,348.3,67,348.4,67,349.1L67,349.1z"/>
<path class="st1" d="M79.6,400.6c-6.3,3.1-14,1.2-18.1-4.5c-0.4-0.6,0.5-1.2,0.9-0.6c3.8,5.3,11,7.1,16.8,4.1
	C79.8,399.3,80.2,400.3,79.6,400.6L79.6,400.6z"/>
<path class="st1" d="M101.8,420c2.3-6.6,2-13.8-0.8-20.2c-0.3-0.6,0.7-1,1-0.4c2.9,6.7,3.2,14.2,0.8,21
	C102.5,421.1,101.6,420.6,101.8,420z"/>
<path class="st1" d="M68.6,371.3c2.7-0.7,4.8-2.7,5.7-5.3c0.2-0.7,1.2-0.2,1,0.4c-1,2.9-3.3,5.1-6.2,5.8c-0.3,0.1-0.6,0-0.7-0.3
	C68.2,371.7,68.3,371.4,68.6,371.3L68.6,371.3z"/>
<path class="st0" d="M747.1,459.5c21.7-11.1,39-33.3,38.5-57.7c-20.3,17-46,26.4-72.4,26.3c-10.2-0.1-21.6-1.2-29.5,5.2
	c-4.9,4-7.5,10.3-8.3,16.7c-0.8,6.3,0.1,12.7,1,19l-0.5,1.5C700.1,472.2,725.4,470.6,747.1,459.5z"/>
<path class="st1" d="M785.1,401.8c-9.6,17.8-24.5,32.1-42.6,40.9c-3.9,2-8,3.3-12.3,4c-4.2,0.5-8.5-0.1-12.3-1.8
	c-3.7-1.5-7.2-3.5-11.2-4c-4.1-0.5-8.2,0.7-11.4,3.4c-4,3.2-6.5,7.7-8.9,12.1c-2.6,4.9-5.2,10.1-9.9,13.5c-0.6,0.4,0.1,1.3,0.7,0.8
	c8-5.9,10-16.4,16.5-23.5c3.1-3.3,7.1-5.7,11.8-5.3c4.1,0.3,7.7,2.3,11.4,3.9c3.8,1.7,7.9,2.5,12,2.2c4.3-0.4,8.5-1.6,12.4-3.5
	c8.9-4,17.1-9.5,24.3-16c8.3-7.5,15.2-16.3,20.5-26.1C786.4,401.5,785.4,401.1,785.1,401.8L785.1,401.8z"/>
<path class="st1" d="M748.5,440.1c3.9,5.9,11.5,8.1,17.9,5.2c0.6-0.3,0.2-1.3-0.4-1c-6,2.7-13.1,0.7-16.7-4.8
	C749,438.9,748.1,439.5,748.5,440.1z"/>
<path class="st1" d="M719.6,445.8c1.3-6.9,5.2-13,10.8-17.1c0.6-0.4-0.1-1.3-0.7-0.8c-5.8,4.3-9.8,10.7-11.2,17.8
	C718.4,446.4,719.4,446.5,719.6,445.8L719.6,445.8z"/>
<path class="st1" d="M772.6,420.2c-2-1.9-2.8-4.7-2.3-7.4c0.1-0.7-0.9-0.8-1.1-0.1c-0.6,3,0.4,6,2.5,8.2c0.2,0.2,0.5,0.3,0.8,0.1
	C772.8,420.8,772.8,420.4,772.6,420.2L772.6,420.2z"/>
<path class="st0" d="M721,350.5c-0.1,0.4-0.2,0.8-0.3,1.3c-1.3,5.7-3.1,11.2-5.4,16.6c-0.2,0.4-0.3,0.8-0.5,1.2
	c-5.5,12.9-13.4,24.6-23.2,34.6c-3.9,4-8.1,7.6-12.6,11c-6.2,4.6-13.2,9.1-17.4,15.3c-0.4,0.6-0.8,1.3-1.2,2l13.6,37.3
	c0.1,0.1,0.1,0.1,0.2,0.2l0.5,1.5c0.2-0.2,0.5-0.3,0.7-0.5c0.1-0.1,0.3-0.2,0.4-0.3c0.1-0.1,0.2-0.1,0.3-0.2c0,0,0.1,0,0.1-0.1
	c0.1-0.1,0.2-0.1,0.2-0.2c1.4-0.9,2.8-1.9,4.2-2.8c0,0,0,0,0,0c10.6-7.1,20.3-15.5,28.9-25c0.3-0.3,0.5-0.6,0.8-0.9
	c3.8-4.3,7.2-8.9,10.2-13.7c1.6-2.7,3.2-5.4,4.5-8.2c3.5-7.3,5.9-15.1,7-23.1c2.2-16-0.7-32.4-10.2-45.2
	C721.5,351.1,721.3,350.8,721,350.5z"/>
<path class="st1" d="M720.6,350.7c3.1,19.9-0.2,40.3-9.4,58.3c-1.9,3.9-4.4,7.5-7.4,10.6c-3,2.9-6.8,5-10.9,6
	c-3.8,1-7.8,1.6-11.3,3.5c-3.6,2-6.2,5.5-7.1,9.5c-1.2,5-0.6,10,0.2,15c0.9,5.5,1.9,11.2,0.2,16.7c-0.2,0.7,0.8,0.9,1,0.3
	c2.9-9.5-1.9-19.1-1-28.7c0.5-4.5,2.3-8.9,6.2-11.4c3.4-2.2,7.6-2.8,11.5-3.8c4-0.9,7.8-2.8,10.9-5.5c3.2-3,5.8-6.4,7.8-10.3
	c4.7-8.6,7.9-17.8,9.7-27.4c2.1-10.9,2.3-22.2,0.6-33.2C721.5,349.8,720.5,350.1,720.6,350.7L720.6,350.7z"/>
<path class="st1" d="M714.5,403.4c6.7,2.3,14-0.5,17.4-6.7c0.3-0.6-0.6-1.1-0.9-0.5c-3.1,5.8-10,8.4-16.2,6.2
	C714.1,402.1,713.8,403.2,714.5,403.4L714.5,403.4z"/>
<path class="st1" d="M694.8,425.4c-3.1-6.3-3.7-13.5-1.7-20.2c0.2-0.7-0.8-0.9-1-0.3c-2.1,7-1.4,14.5,1.8,21
	C694.2,426.5,695.1,426,694.8,425.4L694.8,425.4z"/>
<path class="st1" d="M721.7,373c-2.7-0.4-5.1-2.1-6.3-4.5c-0.3-0.6-1.2-0.1-0.9,0.5c1.3,2.7,3.9,4.6,6.9,5c0.3,0.1,0.6-0.1,0.7-0.4
	C722.2,373.4,722,373.1,721.7,373L721.7,373z"/>
<path class="st1" d="M685.9,120.3H533v9.8c0,0.5,0.2,1,0.5,1.4c-0.3,7.7-0.5,17.5-0.5,28.2v263c0,24.6,1,44.7,2.2,44.7h148.5
	c1.2,0,2.2-20.1,2.2-44.7v-263c0-10.7-0.2-20.5-0.5-28.2c0.3-0.4,0.5-0.9,0.5-1.4L685.9,120.3z"/>
<path class="st2" d="M683.7,468.4H535.2c-1.2,0-1.9,0-2.6-14.1c-0.4-8.5-0.6-19.7-0.6-31.6v-263c0-10.3,0.2-20.3,0.5-28.2
	c0.2-4.7,0.4-8.5,0.7-11.3c0.5-5.4,1-6.3,2.1-6.3h148.5c1.1,0,1.6,0.9,2.1,6.3c0.2,2.8,0.5,6.5,0.7,11.3l0,0
	c0.3,7.9,0.5,17.9,0.5,28.2v263c0,11.9-0.2,23.2-0.6,31.6C685.6,468.4,684.8,468.4,683.7,468.4z M535.8,466.2h147.3
	c0.8-2.9,1.7-18.7,1.7-43.6v-263c0-10.3-0.2-20.3-0.5-28.1h0c-0.2-4.7-0.4-8.4-0.7-11.2c-0.1-1.5-0.3-2.9-0.6-4.3H535.8
	c-0.3,1.4-0.5,2.9-0.6,4.3c-0.2,2.7-0.5,6.5-0.7,11.2c-0.3,7.9-0.5,17.8-0.5,28.1v263C534,447.6,535,463.3,535.8,466.2z"/>
<path class="st3" d="M683.7,114.9H535.2c-1.2,0-2.2,1-2.2,2.2v13c0,0.5,0.2,1,0.5,1.4c0.4,0.5,1,0.8,1.7,0.8h148.5
	c0.7,0,1.3-0.3,1.7-0.8c0.3-0.4,0.5-0.9,0.5-1.4v-13C685.9,115.9,684.9,114.9,683.7,114.9z"/>
<circle id="b800b2fc-3bcc-4a40-9972-a80335d602c8" class="st1" cx="545.8" cy="123" r="3.1"/>
<circle id="fa63cc97-e384-451c-9b8c-3b6845b8b0f6" class="st1" cx="557.6" cy="123" r="3.1"/>
<circle id="beaeadfc-8efd-4e6c-adaf-945ac9d4d623" class="st1" cx="569.5" cy="123" r="3.1"/>
<path class="st1" d="M672,118.8h-13.7c-0.6,0-1,0.5-1,1c0,0.2,0,0.3,0.1,0.4c0.2,0.3,0.5,0.6,0.9,0.6H672c0.4,0,0.7-0.2,0.9-0.6
	c0.1-0.1,0.1-0.3,0.1-0.4C673.1,119.3,672.6,118.8,672,118.8C672,118.8,672,118.8,672,118.8z"/>
<path class="st1" d="M672,122.6h-13.7c-0.6,0-1,0.5-1,1c0,0.6,0.5,1,1,1H672c0.6,0,1-0.4,1-1C673.1,123.1,672.6,122.6,672,122.6
	C672,122.6,672,122.6,672,122.6z"/>
<path class="st1" d="M672,126.4h-13.7c-0.6,0-1,0.5-1,1c0,0.6,0.5,1,1,1H672c0.6,0,1-0.4,1-1C673.1,126.9,672.6,126.4,672,126.4
	C672,126.4,672,126.4,672,126.4z"/>
<linearGradient id="SVGID_1_" gradientUnits="userSpaceOnUse" x1="590.7654" y1="178.177" x2="629.5117" y2="178.177">
	<stop  offset="0" style="stop-color:#FAED7C"/>
	<stop  offset="1" style="stop-color:#F1B31D"/>
</linearGradient>
<path class="st4" d="M624.2,160.7h-28.1c-2.9,0-5.3,2.4-5.3,5.3v24.3c0,2.9,2.4,5.3,5.3,5.3h28.1c2.9,0,5.3-2.4,5.3-5.3V166
	C629.5,163.1,627.1,160.7,624.2,160.7z"/>
<path class="st2" d="M659.1,211.6h-98c-1.3,0-2.4,1.1-2.4,2.4c0,1.3,1.1,2.4,2.4,2.4h98c1.3,0,2.4-1.1,2.4-2.4
	C661.5,212.7,660.5,211.6,659.1,211.6z"/>
<path class="st2" d="M598.4,222.9h-37.2c-1.3,0-2.4,1.1-2.4,2.4c0,1.3,1.1,2.4,2.4,2.4h37.2c1.3,0,2.4-1.1,2.4-2.4
	C600.8,224,599.7,222.9,598.4,222.9L598.4,222.9z"/>
<linearGradient id="SVGID_2_" gradientUnits="userSpaceOnUse" x1="590.7654" y1="283.4431" x2="629.5117" y2="283.4431">
	<stop  offset="0" style="stop-color:#FAED7C"/>
	<stop  offset="1" style="stop-color:#F1B31D"/>
</linearGradient>
<path class="st5" d="M624.2,266h-28.1c-2.9,0-5.3,2.4-5.3,5.3v24.3c0,2.9,2.4,5.3,5.3,5.3h28.1c2.9,0,5.3-2.4,5.3-5.3v-24.3
	C629.5,268.3,627.1,266,624.2,266z"/>
<path class="st2" d="M659.1,316.8h-98c-1.3,0-2.4,1.1-2.4,2.4c0,1.3,1.1,2.4,2.4,2.4h98c1.3,0,2.4-1.1,2.4-2.4
	C661.5,317.9,660.5,316.8,659.1,316.8z"/>
<path class="st2" d="M598.4,328.2h-37.2c-1.3,0-2.4,1.1-2.4,2.4c0,1.3,1.1,2.4,2.4,2.4h37.2c1.3,0,2.4-1.1,2.4-2.4
	C600.8,329.2,599.7,328.2,598.4,328.2L598.4,328.2z"/>
<linearGradient id="SVGID_3_" gradientUnits="userSpaceOnUse" x1="590.7654" y1="388.7092" x2="629.5117" y2="388.7092">
	<stop  offset="0" style="stop-color:#FAED7C"/>
	<stop  offset="1" style="stop-color:#F1B31D"/>
</linearGradient>
<path class="st6" d="M624.2,371.2h-28.1c-2.9,0-5.3,2.4-5.3,5.3v24.3c0,2.9,2.4,5.3,5.3,5.3h28.1c2.9,0,5.3-2.4,5.3-5.3v-24.3
	C629.5,373.6,627.1,371.2,624.2,371.2z"/>
<path class="st2" d="M659.1,422.1h-98c-1.3,0-2.4,1.1-2.4,2.4s1.1,2.4,2.4,2.4c0,0,0,0,0,0h98c1.3,0,2.4-1.1,2.4-2.4
	S660.5,422.1,659.1,422.1C659.1,422.1,659.1,422.1,659.1,422.1z"/>
<path class="st2" d="M598.4,433.4h-37.2c-1.3,0-2.4,1.1-2.4,2.4s1.1,2.4,2.4,2.4c0,0,0,0,0,0h37.2c1.3,0,2.4-1.1,2.4-2.4
	S599.7,433.4,598.4,433.4C598.4,433.4,598.4,433.4,598.4,433.4z"/>
<path class="st1" d="M491.3,107.6c0-1.2-1-2.2-2.2-2.2H96c-1.2,0-2.2,1-2.2,2.2v13c0,0.5,0.2,1.1,0.6,1.5
	c-0.4,8.8-0.6,20.4-0.6,33.1v292.3c0,27.4,1,49.7,2.2,49.7h393c1.2,0,2.2-22.3,2.2-49.7V155.1c0-12.7-0.2-24.3-0.6-33.1
	c0.4-0.4,0.6-0.9,0.6-1.5V107.6z"/>
<path class="st2" d="M489.1,498.1H96c-1.2,0-1.9,0-2.6-15.6c-0.4-9.4-0.6-21.9-0.6-35.2V155.1c0-12.2,0.2-24,0.6-33.1
	c0.7-17.6,1.5-17.6,2.7-17.6h393c1.2,0,2,0,2.7,17.6l0,0c0.4,9.1,0.6,20.9,0.6,33.1v292.3c0,13.3-0.2,25.8-0.6,35.2
	C491,498.1,490.3,498.1,489.1,498.1z M96.7,496h391.8c0.9-3.3,1.8-22.1,1.8-48.6V155.1c0-12.2-0.2-23.9-0.6-33v0
	c-0.4-11.2-1-14.6-1.2-15.6H96.7c-0.2,1-0.8,4.4-1.2,15.6c-0.4,9.1-0.6,20.8-0.6,33v292.3C94.9,474,95.8,492.7,96.7,496z"/>
<path class="st3" d="M489.1,105.4H96c-1.2,0-2.2,1-2.2,2.2v13c0,0.5,0.2,1.1,0.6,1.5c0.4,0.5,1,0.7,1.6,0.7h393
	c0.6,0,1.2-0.3,1.6-0.7c0.4-0.4,0.6-0.9,0.6-1.5v-13C491.3,106.4,490.3,105.4,489.1,105.4z"/>
<circle id="b7005a6f-2f7f-4001-b097-d8b6c117468f" class="st1" cx="106.6" cy="113.4" r="3.1"/>
<circle id="a0adf4f5-8105-4330-a35a-c3adb8f4e7bc" class="st1" cx="118.5" cy="113.4" r="3.1"/>
<circle id="a64b73a5-7207-44c1-bcaf-f99ab7b9c6dc" class="st1" cx="130.3" cy="113.4" r="3.1"/>
<path class="st1" d="M477.5,109.2h-13.7c-0.6,0-1,0.5-1,1c0,0.6,0.5,1,1,1h13.7c0.6,0,1-0.4,1-1C478.5,109.7,478,109.2,477.5,109.2
	C477.5,109.2,477.5,109.2,477.5,109.2z"/>
<path class="st1" d="M477.5,113h-13.7c-0.6,0-1,0.5-1,1c0,0.6,0.5,1,1,1h13.7c0.6,0,1-0.4,1-1C478.5,113.5,478,113,477.5,113
	C477.5,113,477.5,113,477.5,113z"/>
<path class="st1" d="M477.5,116.8h-13.7c-0.6,0-1,0.5-1,1c0,0.6,0.5,1,1,1h13.7c0.6,0,1-0.4,1-1C478.5,117.3,478,116.8,477.5,116.8
	C477.5,116.8,477.5,116.8,477.5,116.8z"/>
<linearGradient id="SVGID_4_" gradientUnits="userSpaceOnUse" x1="168.3828" y1="198.874" x2="231.776" y2="198.874">
	<stop  offset="0" style="stop-color:#FAED7C"/>
	<stop  offset="1" style="stop-color:#F1B31D"/>
</linearGradient>
<path class="st7" d="M223.1,170.3h-46c-4.8,0-8.7,3.9-8.7,8.7v39.8c0,4.8,3.9,8.7,8.7,8.7h46c4.8,0,8.7-3.9,8.7-8.7V179
	C231.8,174.2,227.9,170.3,223.1,170.3z"/>
<path class="st2" d="M412.8,185.7H252.5c-2.2,0-3.9,1.8-3.9,4c0,2.2,1.8,3.9,3.9,3.9h160.3c2.2,0,3.9-1.8,3.9-4
	C416.7,187.4,415,185.7,412.8,185.7z"/>
<path class="st2" d="M313.4,204.2h-60.9c-2.2,0-3.9,1.8-3.9,4c0,2.2,1.8,3.9,3.9,3.9h60.9c2.2,0,3.9-1.8,3.9-4
	C317.3,205.9,315.6,204.2,313.4,204.2z"/>
<linearGradient id="SVGID_5_" gradientUnits="userSpaceOnUse" x1="168.3828" y1="305.2034" x2="231.776" y2="305.2034">
	<stop  offset="0" style="stop-color:#FAED7C"/>
	<stop  offset="1" style="stop-color:#F1B31D"/>
</linearGradient>
<path class="st8" d="M223.1,276.6h-46c-4.8,0-8.7,3.9-8.7,8.7v39.8c0,4.8,3.9,8.7,8.7,8.7h46c4.8,0,8.7-3.9,8.7-8.7v-39.8
	C231.8,280.5,227.9,276.6,223.1,276.6z"/>
<path class="st2" d="M412.8,292H252.5c-2.2,0-3.9,1.8-3.9,4c0,2.2,1.8,3.9,3.9,3.9h160.3c2.2,0,3.9-1.8,3.9-4
	C416.7,293.8,415,292,412.8,292z"/>
<path class="st2" d="M313.4,310.5h-60.9c-2.2,0-3.9,1.8-3.9,4c0,2.2,1.8,3.9,3.9,3.9h60.9c2.2,0,3.9-1.8,3.9-4
	C317.3,312.3,315.6,310.5,313.4,310.5z"/>
<linearGradient id="SVGID_6_" gradientUnits="userSpaceOnUse" x1="168.3828" y1="411.5327" x2="231.776" y2="411.5327">
	<stop  offset="0" style="stop-color:#FAED7C"/>
	<stop  offset="1" style="stop-color:#F1B31D"/>
</linearGradient>
<path class="st9" d="M223.1,382.9h-46c-4.8,0-8.7,3.9-8.7,8.7v39.8c0,4.8,3.9,8.7,8.7,8.7h46c4.8,0,8.7-3.9,8.7-8.7v-39.8
	C231.8,386.8,227.9,382.9,223.1,382.9z"/>
<path class="st2" d="M412.8,398.3H252.5c-2.2,0-3.9,1.8-3.9,4c0,2.2,1.8,3.9,3.9,3.9h160.3c2.2,0,3.9-1.8,3.9-4
	C416.7,400.1,415,398.3,412.8,398.3z"/>
<path class="st2" d="M313.4,416.8h-60.9c-2.2,0-3.9,1.8-3.9,4c0,2.2,1.8,3.9,3.9,3.9h60.9c2.2,0,3.9-1.8,3.9-4
	C317.3,418.6,315.6,416.8,313.4,416.8z"/>
<path class="st1" d="M559.3,567.2H295.9c-1.2,0-2.2-18.7-2.2-41.6V280.9c0-22.9,1-41.6,2.2-41.6h263.3c1.2,0,2.2,18.7,2.2,41.6
	v244.7C561.5,548.6,560.5,567.2,559.3,567.2z"/>
<path class="st2" d="M559.3,568.3H295.9c-1.1,0-1.9,0-2.6-13.2c-0.4-7.9-0.6-18.3-0.6-29.5V280.9c0-11.1,0.2-21.6,0.6-29.5
	c0.7-13.2,1.5-13.2,2.6-13.2h263.3c1.1,0,1.9,0,2.6,13.2c0.4,7.9,0.6,18.3,0.6,29.5v244.7c0,11.1-0.2,21.6-0.6,29.5
	C561.2,568.3,560.4,568.3,559.3,568.3z M296.5,566.2h262.1c0.8-2.8,1.7-17.4,1.7-40.5V280.9c0-23.1-1-37.8-1.7-40.5H296.5
	c-0.8,2.8-1.7,17.4-1.7,40.5v244.7C294.8,548.8,295.8,563.4,296.5,566.2z"/>
<path class="st3" d="M559.3,256.7H295.9c-1.2,0-2.2-1-2.2-2.2v-13c0-1.2,1-2.2,2.2-2.2h263.3c1.2,0,2.2,1,2.2,2.2v13
	C561.5,255.7,560.5,256.7,559.3,256.7z"/>
<circle id="a9432236-99f6-4733-9920-e312ad95354d" class="st1" cx="306.5" cy="247.4" r="3.1"/>
<circle id="fc8d1cb9-e477-4d66-a241-a00170356ca4" class="st1" cx="318.4" cy="247.4" r="3.1"/>
<circle id="bc1189a4-69b8-41a6-80e2-1e52c3b8abfb" class="st1" cx="330.2" cy="247.4" r="3.1"/>
<path class="st1" d="M547.6,245.2H534c-0.6,0-1-0.5-1-1s0.5-1,1-1h13.7c0.6,0,1,0.5,1,1C548.6,244.8,548.2,245.2,547.6,245.2z"/>
<path class="st1" d="M547.6,249H534c-0.6,0-1-0.5-1-1c0-0.6,0.5-1,1-1h13.7c0.6,0,1,0.5,1,1C548.7,248.6,548.2,249,547.6,249
	L547.6,249z"/>
<path class="st1" d="M547.6,252.8H534c-0.6,0-1-0.5-1-1c0-0.6,0.5-1,1-1h13.7c0.6,0,1,0.5,1,1C548.6,252.4,548.2,252.8,547.6,252.8z
	"/>
<linearGradient id="SVGID_7_" gradientUnits="userSpaceOnUse" x1="336.9106" y1="316.1824" x2="383.2089" y2="316.1824">
	<stop  offset="0" style="stop-color:#FAED7C"/>
	<stop  offset="1" style="stop-color:#F1B31D"/>
</linearGradient>
<path class="st10" d="M376.9,337.1h-33.6c-3.5,0-6.3-2.8-6.4-6.4v-29.1c0-3.5,2.8-6.3,6.4-6.4h33.6c3.5,0,6.3,2.8,6.4,6.4v29.1
	C383.2,334.2,380.4,337.1,376.9,337.1z"/>
<path class="st2" d="M515.4,312.3H398.3c-1.6,0-2.9-1.3-2.9-2.9c0-1.6,1.3-2.9,2.9-2.9h117.1c1.6,0,2.9,1.3,2.9,2.9
	C518.3,311,517,312.3,515.4,312.3z"/>
<path class="st2" d="M442.8,325.8h-44.5c-1.6,0-2.9-1.3-2.9-2.9c0-1.6,1.3-2.9,2.9-2.9c0,0,0,0,0,0h44.5c1.6,0,2.9,1.3,2.9,2.9
	C445.7,324.5,444.4,325.8,442.8,325.8C442.8,325.8,442.8,325.8,442.8,325.8L442.8,325.8z"/>
<linearGradient id="SVGID_8_" gradientUnits="userSpaceOnUse" x1="336.9106" y1="402.3092" x2="383.2089" y2="402.3092">
	<stop  offset="0" style="stop-color:#FAED7C"/>
	<stop  offset="1" style="stop-color:#F1B31D"/>
</linearGradient>
<path class="st11" d="M376.9,423.2h-33.6c-3.5,0-6.3-2.8-6.4-6.4v-29.1c0-3.5,2.8-6.3,6.4-6.4h33.6c3.5,0,6.3,2.8,6.4,6.4v29.1
	C383.2,420.4,380.4,423.2,376.9,423.2z"/>
<path class="st2" d="M515.4,398.4H398.3c-1.6,0-2.9-1.3-2.9-2.9s1.3-2.9,2.9-2.9h117.1c1.6,0,2.9,1.3,2.9,2.9S517,398.4,515.4,398.4
	z"/>
<path class="st2" d="M442.8,412h-44.5c-1.6,0-2.9-1.3-2.9-2.9s1.3-2.9,2.9-2.9h44.5c1.6,0,2.9,1.3,2.9,2.9S444.4,412,442.8,412
	L442.8,412z"/>
<linearGradient id="SVGID_9_" gradientUnits="userSpaceOnUse" x1="336.9106" y1="488.4359" x2="383.2089" y2="488.4359">
	<stop  offset="0" style="stop-color:#FAED7C"/>
	<stop  offset="1" style="stop-color:#F1B31D"/>
</linearGradient>
<path class="st12" d="M376.9,509.3h-33.6c-3.5,0-6.3-2.8-6.4-6.4v-29.1c0-3.5,2.8-6.3,6.4-6.4h33.6c3.5,0,6.3,2.8,6.4,6.4V503
	C383.2,506.5,380.4,509.3,376.9,509.3z"/>
<path class="st2" d="M515.4,484.6H398.3c-1.6,0-2.9-1.3-2.9-2.9s1.3-2.9,2.9-2.9h117.1c1.6,0,2.9,1.3,2.9,2.9S517,484.6,515.4,484.6
	z"/>
<path class="st2" d="M442.8,498.1h-44.5c-1.6,0-2.9-1.3-2.9-2.9s1.3-2.9,2.9-2.9h44.5c1.6,0,2.9,1.3,2.9,2.9
	S444.4,498.1,442.8,498.1L442.8,498.1z"/>
</svg>
